<?xml version="1.0" encoding="UTF-8" standalone="no"?>
<!-- Created with Inkscape (http://www.inkscape.org/) -->

<svg
   xmlns:dc="http://purl.org/dc/elements/1.1/"
   xmlns:cc="http://creativecommons.org/ns#"
   xmlns:rdf="http://www.w3.org/1999/02/22-rdf-syntax-ns#"
   xmlns:svg="http://www.w3.org/2000/svg"
   xmlns="http://www.w3.org/2000/svg"
   version="1.1"
   width="443"
   height="443"
   id="svg2">
  <defs
     id="defs4" />
  <metadata
     id="metadata7">
    <rdf:RDF>
      <cc:Work
         rdf:about="">
        <dc:format>image/svg+xml</dc:format>
        <dc:type
           rdf:resource="http://purl.org/dc/dcmitype/StillImage" />
        <dc:title></dc:title>
      </cc:Work>
    </rdf:RDF>
  </metadata>
  <g
     transform="translate(0,-609.36213)"
     id="layer1">
    <path
       d="m 418.36377,848.69878 c -50.122,28.93795 -50.96833,29.42658 -50.96833,29.42658 l 0,-64.40842 z"
       id="path3921"
       style="fill:#333333;fill-opacity:1;stroke:none" />
    <path
       d="m 34.69201,800.17559 50.18746,-28.97574 12.39475,46.25778 z"
       id="path3917"
       style="fill:#333333;fill-opacity:1;stroke:none" />
    <path
       d="m 226.25321,623.72955 -4.0146,2.31899 -3.96472,2.31899 -0.0249,0 -68.52241,39.59738 -0.0249,0.0249 -0.0499,0.0249 -0.0748,0.0499 -0.62338,0.32416 -0.29923,0.17454 -0.0748,0.0499 -0.0997,0.0499 -0.0249,0.0249 -0.12468,0.0748 c -0.0895,0.0499 -0.18421,0.1243 -0.27429,0.17454 -1.48978,0.83088 -3.04547,1.68881 -4.66292,2.66809 -0.0769,0.0465 -0.0588,0.0197 -0.14961,0.0748 l -69.09593,39.92154 -3.98965,2.29405 -3.98966,2.29405 0,4.61306 0,4.61303 0,137.46875 c 0,88.2396 71.84224,160.10998 160.08513,160.10998 88.24288,0 160.0851,-71.87038 160.0851,-160.10998 l 0,-137.46875 0,-4.61303 0,-4.61306 -3.98965,-2.29405 -3.98966,-2.29405 -68.62216,-39.62232 -0.44884,-0.27429 c -0.0502,-0.0305 -0.0996,-0.0446 -0.14961,-0.0748 -1.60643,-0.97234 -3.14932,-1.86277 -4.63797,-2.69302 -0.0645,-0.0424 -0.036,-0.025 -0.0748,-0.0499 -0.0805,-0.045 -0.16921,-0.10502 -0.24935,-0.14961 -0.1036,-0.0616 -0.1945,-0.10428 -0.27429,-0.14961 l -3.71537,6.70762 c 0.0251,-0.1037 0.22019,-0.86722 0.32416,-1.29665 l 3.14186,-5.53565 -0.17455,-0.0997 -0.39897,-0.22442 -0.0249,-0.0249 -0.0997,-0.0499 -0.0499,-0.0249 -0.0249,-0.0249 -0.0499,-0.0249 -0.24935,-0.14961 -0.773,-0.4239 -67.54995,-39.04881 -4.01459,-2.31898 -3.98966,-2.31899 z m 77.39942,44.73406 c 0.0463,0.0265 0.25364,0.12707 0.24935,0.12468 -0.0884,-0.0502 -0.18373,-0.1104 -0.29922,-0.17455 0.0404,0.0198 0.0387,0.0435 0.0499,0.0499 z"
       id="path3895"
       style="font-size:medium;font-style:normal;font-variant:normal;font-weight:normal;font-stretch:normal;text-indent:0;text-align:start;text-decoration:none;line-height:normal;letter-spacing:normal;word-spacing:normal;text-transform:none;direction:ltr;block-progression:tb;writing-mode:lr-tb;text-anchor:start;baseline-shift:baseline;color:#000000;fill:#1a1a1a;fill-opacity:1;fill-rule:nonzero;stroke:none;stroke-width:20;marker:none;visibility:visible;display:inline;overflow:visible;enable-background:accumulate;font-family:Sans;-inkscape-font-specification:Sans" />
    <path
       d="m 226.25321,632.95564 -3.98966,2.31899 -68.57229,39.62231 -0.12467,0.0748 -0.773,0.4239 -0.0748,0.0499 -0.0748,0.0499 -0.14961,0.0748 -0.14961,0.0997 c -1.58146,0.88008 -3.19447,1.78819 -4.81254,2.76783 -0.0486,0.0294 -0.10092,0.0453 -0.14961,0.0748 l -69.24554,39.99634 -3.98966,2.29405 0,4.61304 0,137.46874 c 0,83.9172 68.18693,152.13076 152.10582,152.13076 83.91887,0 152.1058,-68.21356 152.1058,-152.13076 l 0,-137.46874 0,-4.61304 -3.98966,-2.29405 -69.22061,-39.97141 0,-0.0249 c -1.71975,-1.04493 -3.43334,-2.00974 -5.11176,-2.94237 0.18784,0.10442 0.0555,0.0225 -0.29922,-0.17455 l -0.0249,0 -0.74806,-0.4239 -0.12468,-0.0748 -68.5723,-39.62233 -4.01462,-2.31894 z"
       id="path3870"
       style="font-size:medium;font-style:normal;font-variant:normal;font-weight:normal;font-stretch:normal;text-indent:0;text-align:start;text-decoration:none;line-height:normal;letter-spacing:normal;word-spacing:normal;text-transform:none;direction:ltr;block-progression:tb;writing-mode:lr-tb;text-anchor:start;baseline-shift:baseline;color:#000000;fill:#ffffff;fill-opacity:1;fill-rule:nonzero;stroke:none;stroke-width:20;marker:none;visibility:visible;display:inline;overflow:visible;enable-background:accumulate;font-family:Sans;-inkscape-font-specification:Sans" />
    <path
       d="m 226.26381,642.16814 -68.69696,39.69713 -0.89767,0.4987 -0.29923,0.17455 c -1.63021,0.90586 -3.24684,1.82628 -4.83746,2.79276 l -69.39515,40.07115 0,137.46874 c 0,79.60569 64.52079,144.15143 144.12647,144.15143 79.6057,0 144.12649,-64.54574 144.12649,-144.15143 l 0,-137.46874 -69.39515,-40.07115 c -1.59063,-0.96648 -3.20725,-1.8869 -4.83746,-2.79276 -0.1009,-0.0561 -0.19818,-0.11872 -0.29923,-0.17455 l -0.89766,-0.4987 z m -99.44228,62.11402 c -0.83438,0.79551 -1.65348,1.60362 -2.4686,2.41874 0.8128,-0.81295 1.63665,-1.6253 2.4686,-2.41874 z m 198.88458,0 c 0.83195,0.79344 1.6558,1.60579 2.4686,2.41874 -0.81513,-0.81512 -1.63422,-1.62323 -2.4686,-2.41874 z"
       id="path3859"
       style="fill:#1a1a1a;fill-opacity:1;stroke:none" />
    <path
       d="m 34.45656,800.65482 0,8.63528 0,78.03244 0,8.63528 8.63529,-1.06685 366.34765,-45.26103 8.63529,-1.06686 0,-8.63529 0,-78.03244 0,-8.63529 -8.63529,1.06687 -366.34765,45.26101 -8.63529,1.06687 z"
       id="path3912"
       style="font-size:medium;font-style:normal;font-variant:normal;font-weight:normal;font-stretch:normal;text-indent:0;text-align:start;text-decoration:none;line-height:normal;letter-spacing:normal;word-spacing:normal;text-transform:none;direction:ltr;block-progression:tb;writing-mode:lr-tb;text-anchor:start;baseline-shift:baseline;color:#000000;fill:#1a1a1a;fill-opacity:1;fill-rule:nonzero;stroke:none;stroke-width:24;marker:none;visibility:visible;display:inline;overflow:visible;enable-background:accumulate;font-family:Sans;-inkscape-font-specification:Sans" />
    <rect
       width="369.11481"
       height="78.047203"
       x="43.427212"
       y="813.52393"
       transform="matrix(0.99245439,-0.12261441,0,1,0,0)"
       id="rect3902"
       style="fill:#ffffff;fill-opacity:1;stroke:none" />
    <g
       transform="matrix(1,-0.12354665,0,1,0,0)"
       id="text3898"
       style="font-size:90.21366119px;font-style:normal;font-weight:normal;line-height:125%;letter-spacing:0px;word-spacing:0px;fill:#1a1a1a;fill-opacity:1;stroke:none;font-family:Sans">
      <path
         d="m 92.463238,853.16425 c -0.234976,1.32152 -0.513957,2.92199 -0.836943,4.80141 -0.293708,1.87948 -0.602056,3.78829 -0.925042,5.72646 -0.323074,1.90883 -0.616738,3.71486 -0.880993,5.4181 -0.234974,1.6739 -0.396489,2.96602 -0.484546,3.87637 -0.02941,0.26431 -0.05877,0.51392 -0.0881,0.74885 -4.3e-5,0.20557 -4.3e-5,0.41113 0,0.61669 -4.3e-5,1.02783 0.176156,1.77667 0.528595,2.24653 0.352354,0.4405 0.969049,0.69012 1.850085,0.74885 l 0,1.62983 c -0.734204,0.1762 -1.483048,0.33772 -2.246531,0.48455 -0.734203,0.14683 -1.438996,0.27898 -2.114383,0.39645 -0.646101,0.11746 -1.248112,0.20556 -1.806035,0.26429 -0.528634,0.0587 -0.96913,0.0881 -1.32149,0.0881 -1.086593,0 -1.879486,-0.2643 -2.37868,-0.79289 -0.499264,-0.55796 -0.748878,-1.46832 -0.748844,-2.73108 l 0,-0.57264 c -3.4e-5,-0.0881 -3.4e-5,-0.1762 0,-0.2643 -3.4e-5,-0.11746 0.01465,-0.24961 0.04405,-0.39645 0.08807,-0.96909 0.24958,-2.31994 0.484546,-4.05257 0.264263,-1.7326 0.557927,-3.59737 0.880993,-5.5943 0.322994,-2.02627 0.646025,-4.05255 0.969092,-6.07885 0.35236,-2.05563 0.660707,-3.87634 0.925042,-5.46216 -1.262792,0.29369 -2.62833,0.60204 -4.096616,0.92505 -1.468354,0.29369 -2.907307,0.55798 -4.316865,0.79289 -1.38025,0.23496 -2.643005,0.44052 -3.788269,0.6167 -1.145315,0.14685 -2.04099,0.22027 -2.687028,0.22024 -0.557984,3e-5 -1.04253,-0.0587 -1.453638,-0.17619 -0.411151,-0.14681 -0.778231,-0.36706 -1.101241,-0.66075 -0.32305,-0.29364 -0.631398,-0.6754 -0.925043,-1.14529 -0.293682,-0.4992 -0.587346,-1.10121 -0.880992,-1.80604 l -5.726453,1.40959 c 0.205552,0.85165 0.308334,1.82075 0.308347,2.90728 -1.3e-5,1.20404 -0.176211,2.33465 -0.528596,3.39182 -0.323042,1.02784 -0.822271,1.95289 -1.497687,2.77513 -0.646072,0.79291 -1.438964,1.45365 -2.378681,1.98223 -0.939733,0.52861 -2.011606,0.88101 -3.215624,1.05719 -0.5286,0.0881 -1.101244,0.13217 -1.717935,0.13215 -0.499233,2e-5 -1.027828,-0.044 -1.585787,-0.13215 0.46986,-1.14527 0.822257,-2.29056 1.057191,-3.43587 0.264295,-1.17464 0.396443,-2.33461 0.396447,-3.47992 -4e-6,-1.76196 -0.323034,-3.4799 -0.969092,-5.15381 l 14.976877,-3.70017 c -1.762001,-4.84542 -2.642993,-9.30912 -2.642978,-13.39109 -1.5e-5,-2.46673 0.337699,-4.71326 1.013141,-6.73959 0.704778,-2.0556 1.761968,-3.8029 3.171574,-5.24191 1.409569,-1.46826 3.186236,-2.59887 5.330007,-3.39182 2.143722,-0.8222 4.669233,-1.23333 7.576538,-1.23339 1.879417,6e-5 3.567985,0.20562 5.065708,0.61669 1.527016,0.41119 2.819137,1.04257 3.876368,1.89414 1.086516,0.85168 1.923459,1.92355 2.51083,3.21562 0.587285,1.26281 0.880949,2.74581 0.880993,4.44902 -4.4e-5,2.52555 -0.52864,4.69867 -1.585787,6.51934 -1.057233,1.79139 -2.481503,3.28908 -4.272815,4.49307 -1.762022,1.20406 -3.81767,2.1291 -6.16695,2.77512 -2.319977,0.6461 -4.742705,1.08659 -7.26819,1.32149 0.08807,0.32307 0.20554,0.71951 0.352397,1.18934 0.176173,0.44053 0.352371,0.91039 0.528595,1.40959 0.20554,0.49926 0.396421,0.99849 0.572646,1.49769 0.205538,0.46989 0.39642,0.88102 0.572645,1.23339 0.264271,0.58735 0.513885,0.99848 0.748844,1.23339 0.234904,0.23496 0.5873,0.35242 1.057191,0.3524 0.469834,2e-5 1.248043,-0.0881 2.334631,-0.2643 1.086526,-0.20554 2.275865,-0.44047 3.568021,-0.7048 1.292087,-0.26427 2.598892,-0.54325 3.920418,-0.83694 1.321449,-0.29364 2.466739,-0.55793 3.435872,-0.79289 0.293622,-0.0587 0.557919,-0.10276 0.792893,-0.13215 0.234889,-0.0587 0.46982,-0.0881 0.704794,-0.0881 0.851583,3e-5 1.43891,0.20559 1.761986,0.61669 0.322985,0.41116 0.499184,0.91039 0.528596,1.49769 -4.6e-5,0.14686 -0.01473,0.29369 -0.04405,0.4405 -4.6e-5,0.14686 -0.01473,0.29369 -0.04405,0.44049 m -23.08201,-18.98539 c -2.2e-5,0.76357 0.02934,1.49773 0.0881,2.20248 0.05871,0.67547 0.132126,1.38027 0.220248,2.11438 0.117443,0.7342 0.264275,1.51241 0.440496,2.33463 0.205542,0.79294 0.440473,1.67393 0.704794,2.64298 1.791327,-0.35236 3.406479,-0.93969 4.845461,-1.76198 1.468291,-0.82222 2.70168,-1.77663 3.700169,-2.86323 1.027792,-1.11588 1.806001,-2.3199 2.334631,-3.61207 0.557927,-1.32144 0.836908,-2.65761 0.836943,-4.00852 -3.5e-5,-0.85157 -0.117501,-1.68852 -0.352397,-2.51083 -0.2056,-0.85157 -0.543313,-1.60041 -1.013141,-2.24653 -0.469897,-0.64601 -1.086591,-1.15992 -1.850085,-1.54173 -0.734193,-0.41108 -1.629868,-0.61664 -2.687028,-0.6167 -2.20251,6e-5 -3.964493,0.82231 -5.285957,2.46678 -1.321512,1.64457 -1.982256,4.11135 -1.982234,7.40034"
         id="path3040"
         style="font-variant:normal;font-stretch:normal;fill:#1a1a1a;font-family:Nyala;-inkscape-font-specification:Nyala" />
      <path
         d="m 135.36759,849.99268 c -4e-5,1.20405 -0.0588,2.68705 -0.1762,4.44901 -0.1175,1.76201 -0.33775,3.6121 -0.66075,5.55026 -0.32306,1.9382 -0.74887,3.87638 -1.27744,5.81455 -0.49926,1.90883 -1.16,3.64145 -1.98223,5.19786 -0.82229,1.52706 -1.79138,2.77513 -2.90727,3.74422 -1.11596,0.93973 -2.42276,1.40959 -3.92042,1.40959 -1.23342,0 -2.43744,0.0294 -3.61207,0.0881 -1.14532,0.0587 -2.21719,0.23494 -3.21563,0.5286 -1.11594,0.32303 -2.08503,0.7048 -2.90727,1.14529 -0.82228,0.41113 -1.58581,0.80758 -2.29058,1.18934 -0.70481,0.38176 -1.39492,0.7048 -2.07034,0.96909 -0.67544,0.2643 -1.42428,0.39645 -2.24653,0.39645 -2.17312,0 -3.89106,-0.91036 -5.15381,-2.73108 -1.23339,-1.85008 -1.85008,-4.68394 -1.85008,-8.50158 0,-1.93817 0.10278,-3.93508 0.30835,-5.99075 0.20556,-2.05563 0.52859,-4.06723 0.96909,-6.0348 0.46986,-1.99689 1.05718,-3.90571 1.76198,-5.72645 0.73416,-1.82069 1.61515,-3.47989 2.64298,-4.97761 1.05718,-1.49765 2.27589,-2.78978 3.65612,-3.87637 1.38021,-1.11589 2.95131,-1.93815 4.71331,-2.46678 0.17618,-0.0587 0.35238,-0.10274 0.5286,-0.13215 0.17618,-0.0587 0.35238,-0.11742 0.52859,-0.1762 0.0881,-0.99841 0.1615,-2.04092 0.22025,-3.12752 0.0587,-1.11588 0.10277,-2.12902 0.13215,-3.03943 0.0587,-0.91031 0.10277,-1.67384 0.13215,-2.29058 0.0294,-0.61664 0.044,-0.96904 0.044,-1.05719 -2e-5,-1.90877 -0.0881,-3.30367 -0.2643,-4.18471 -0.17621,-0.91031 -0.67544,-1.39486 -1.49769,-1.45364 l 0,-1.62984 c 0.70478,-0.14678 1.42426,-0.29361 2.15844,-0.4405 0.7635,-0.14677 1.49766,-0.27892 2.20248,-0.39644 0.70477,-0.11741 1.33615,-0.20551 1.89413,-0.2643 0.58731,-0.088 1.04249,-0.13209 1.36554,-0.13215 0.58731,6e-5 1.04248,0.0882 1.36554,0.2643 0.32301,0.17625 0.55794,0.45523 0.7048,0.83694 0.17617,0.38182 0.27895,0.88105 0.30834,1.49769 0.0587,0.58738 0.0881,1.30686 0.0881,2.15843 -2e-5,0.35245 -0.0147,0.95446 -0.0441,1.80604 -0.0294,0.85167 -0.0734,1.85013 -0.13215,2.99537 -0.0588,1.11597 -0.13217,2.32 -0.22024,3.61207 -0.0588,1.2628 -0.1175,2.48151 -0.1762,3.65612 1.52702,4e-5 2.95129,0.20561 4.27281,0.6167 1.35083,0.3818 2.5108,1.01318 3.47992,1.89413 0.96906,0.88103 1.73259,2.041 2.29058,3.47992 0.55793,1.43899 0.83691,3.21566 0.83695,5.33001 m -25.59284,16.12217 c -10e-6,1.11593 0.10277,2.15844 0.30834,3.12752 0.20556,0.9691 0.54327,1.80605 1.01315,2.51083 0.49921,0.7048 1.15996,1.26276 1.98223,1.67389 0.82224,0.38177 1.83539,0.57265 3.03943,0.57264 1.5564,10e-6 2.90725,-0.39644 4.05256,-1.18934 1.17464,-0.79288 2.15841,-1.82071 2.95133,-3.08347 0.82223,-1.29211 1.48298,-2.74575 1.98223,-4.36092 0.4992,-1.6445 0.88097,-3.3037 1.14529,-4.97761 0.29364,-1.67386 0.48452,-3.3037 0.57265,-4.88951 0.11743,-1.58576 0.17617,-2.98066 0.1762,-4.18471 -3e-5,-1.1159 -0.0588,-2.23182 -0.1762,-3.34777 -0.1175,-1.14526 -0.39648,-2.17309 -0.83695,-3.08348 -0.41115,-0.91032 -1.01316,-1.64448 -1.80603,-2.20248 -0.79292,-0.58729 -1.85011,-0.88096 -3.17157,-0.88099 -1.43898,3e-5 -2.71642,0.42585 -3.83232,1.27744 -1.11595,0.82229 -2.09972,1.90885 -2.95133,3.25967 -0.82227,1.35089 -1.52707,2.90731 -2.11438,4.66926 -0.55798,1.73265 -1.01316,3.49463 -1.36554,5.28596 -0.35241,1.79137 -0.60202,3.55336 -0.74884,5.28595 -0.14685,1.70327 -0.22026,3.21564 -0.22025,4.53712"
         id="path3042"
         style="font-variant:normal;font-stretch:normal;fill:#1a1a1a;font-family:Nyala;-inkscape-font-specification:Nyala" />
      <path
         d="m 169.41796,850.60937 c -0.32306,4.02323 -0.61672,7.95833 -0.88099,11.80531 -0.26433,3.81765 -0.48457,7.34161 -0.66074,10.57191 -3e-5,0.23494 -0.0147,0.46987 -0.044,0.7048 -3e-5,0.20557 -3e-5,0.42581 0,0.66074 -3e-5,0.38177 0.0293,0.74885 0.0881,1.10124 0.0587,0.3524 0.16148,0.67543 0.30834,0.96909 0.17617,0.2643 0.4111,0.48455 0.7048,0.66075 0.323,0.1762 0.73413,0.2643 1.23339,0.2643 l 0,1.62983 c -0.73419,0.1762 -1.48304,0.33772 -2.24653,0.48455 -0.73419,0.14683 -1.43899,0.2643 -2.11439,0.3524 -0.64608,0.11746 -1.2481,0.20556 -1.80603,0.26429 -0.52862,0.0881 -0.96912,0.13215 -1.32149,0.13215 -1.26278,0 -2.12909,-0.36708 -2.59893,-1.10124 -0.44052,-0.73416 -0.60203,-1.95286 -0.48455,-3.65612 0.0881,-1.64451 0.19086,-3.4065 0.30835,-5.28596 0.14681,-1.87944 0.29364,-3.84698 0.4405,-5.90265 0.14681,-2.05563 0.29364,-4.15533 0.44049,-6.2991 0.17618,-2.17309 0.35238,-4.3462 0.5286,-6.51934 -1.55644,0.93975 -3.12754,1.65923 -4.71331,2.15843 -1.5858,0.46989 -3.12754,0.70482 -4.62521,0.70479 -1.64454,3e-5 -3.09817,-0.27895 -4.36092,-0.83694 -1.2334,-0.5873 -2.2759,-1.38019 -3.12752,-2.37868 -0.85163,-1.02779 -1.49769,-2.23182 -1.93819,-3.61207 -0.41113,-1.38019 -0.61669,-2.86319 -0.61669,-4.44901 0,-3.289 0.66074,-6.04944 1.98223,-8.28134 1.32148,-2.26116 3.06879,-4.08188 5.24191,-5.46215 2.20247,-1.38017 4.7133,-2.36395 7.53249,-2.95133 2.84852,-0.61664 5.78516,-0.93967 8.80993,-0.96909 1.35082,6e-5 2.67231,-0.088 3.96446,-0.2643 1.29209,-0.20551 2.54017,-0.41107 3.74422,-0.61669 1.23336,-0.20551 2.40801,-0.39639 3.52397,-0.57265 1.14526,-0.17614 2.20245,-0.26424 3.17158,-0.26429 1.70321,5e-5 3.21558,0.27903 4.53711,0.83694 1.35081,0.55802 2.48142,1.33622 3.39182,2.33463 0.91031,0.96914 1.60042,2.1438 2.07034,3.52397 0.46981,1.38027 0.70474,2.89264 0.70479,4.53711 -5e-5,2.20253 -0.36713,4.31691 -1.10124,6.34315 -0.73421,2.02632 -1.76204,3.83235 -3.08348,5.41811 -1.32153,1.55645 -2.922,2.80452 -4.80141,3.74422 -1.85012,0.91038 -3.90577,1.36556 -6.16695,1.36554 -0.67546,2e-5 -1.54177,-0.10276 -2.59893,-0.30835 -1.05722,-0.20554 -2.20251,-0.48452 -3.43587,-0.83695 m -6.1229,-22.64151 c -2.05567,0.0882 -3.89107,0.4846 -5.5062,1.18934 -1.58581,0.67548 -2.92198,1.60052 -4.00852,2.77513 -1.08657,1.1747 -1.92351,2.58429 -2.51083,4.22876 -0.55797,1.64456 -0.83695,3.47996 -0.83694,5.50621 -10e-6,1.20406 0.11745,2.3053 0.3524,3.30372 0.26428,0.96913 0.67541,1.82075 1.23339,2.55488 0.55794,0.70483 1.27742,1.26279 2.15843,1.67389 0.88097,0.38179 1.96753,0.57267 3.25967,0.57264 0.49921,3e-5 1.07186,-0.044 1.71794,-0.13215 0.6754,-0.11743 1.4683,-0.36705 2.37868,-0.74884 0.32301,-3.87633 0.63135,-7.5765 0.92504,-11.10051 0.32301,-3.52393 0.60199,-6.79828 0.83694,-9.82307 m 8.06109,-0.57265 c -0.2937,3.0248 -0.58736,6.29915 -0.881,9.82307 -0.29369,3.49465 -0.58735,7.10671 -0.88099,10.83622 0.9397,0.23496 1.74727,0.39647 2.42273,0.48454 0.70476,0.0881 1.32146,0.13218 1.85009,0.13215 1.49765,3e-5 2.7604,-0.45515 3.78827,-1.36554 1.05715,-0.93969 1.90877,-2.09966 2.55487,-3.47992 0.67539,-1.38018 1.15994,-2.8485 1.45364,-4.40496 0.29362,-1.55638 0.44046,-2.98065 0.4405,-4.27282 -4e-5,-2.61356 -0.57269,-4.62516 -1.71794,-6.0348 -1.11596,-1.40954 -2.95136,-2.11433 -5.5062,-2.11438 -1.02786,5e-5 -2.20252,0.1322 -3.52397,0.39644"
         id="path3044"
         style="font-variant:normal;font-stretch:normal;fill:#1a1a1a;font-family:Nyala;-inkscape-font-specification:Nyala" />
      <path
         d="m 260.29236,878.88924 c -0.26434,0.0881 -0.8223,0.20557 -1.67389,0.3524 -0.85166,0.14683 -1.7767,0.29366 -2.77512,0.4405 -0.96913,0.17619 -1.92354,0.30834 -2.86323,0.39644 -0.93976,0.11747 -1.64455,0.1762 -2.11438,0.1762 -0.44053,0 -0.77824,-0.14683 -1.01314,-0.44049 -0.2056,-0.2643 -0.3818,-0.64607 -0.5286,-1.14529 -0.23496,-0.7929 -0.42584,-1.80604 -0.57264,-3.03943 -0.14687,-1.23338 -0.26433,-2.46677 -0.3524,-3.70017 -0.0588,-1.26275 -0.10281,-2.42272 -0.13215,-3.47992 -3e-5,-1.08655 -3e-5,-1.87944 0,-2.37868 -3e-5,-1.85007 0.0293,-3.72952 0.0881,-5.63836 0.0881,-1.90879 0.17617,-3.71483 0.2643,-5.4181 0.0881,-1.73259 0.16148,-3.28901 0.22024,-4.66926 0.0881,-1.40956 0.13212,-2.5108 0.13215,-3.30373 -3e-5,-1.29208 -0.10281,-2.56952 -0.30834,-3.83231 -0.17623,-1.26272 -0.54331,-2.39333 -1.10124,-3.39183 -0.52863,-1.02778 -1.27747,-1.85004 -2.24654,-2.46678 -0.96911,-0.64602 -2.23187,-0.96905 -3.78827,-0.96909 -1.87947,4e-5 -3.46525,0.45522 -4.75736,1.36554 -1.29214,0.9104 -2.36401,2.09974 -3.21562,3.56802 -0.82227,1.43899 -1.46834,3.06883 -1.93818,4.88951 -0.44051,1.82075 -0.76354,3.64147 -0.9691,5.46216 -0.20557,1.82074 -0.33772,3.55336 -0.39644,5.19785 -0.0294,1.61518 -0.0441,2.96603 -0.044,4.05257 -1e-5,0.70481 0.0147,1.60049 0.044,2.68703 0.0587,1.0572 0.11745,2.15844 0.1762,3.30372 0.0881,1.1453 0.19086,2.24654 0.30834,3.30372 0.11746,1.0572 0.26429,1.90883 0.4405,2.55488 0.32302,1.35086 0.82225,2.31996 1.49769,2.90728 0.70478,0.55796 1.60045,0.95441 2.68703,1.18934 l -0.0881,1.62984 c -0.26432,0.11746 -0.82228,0.27898 -1.67389,0.48454 -0.85164,0.20557 -1.79137,0.39645 -2.81918,0.57265 -0.99847,0.20556 -2.01161,0.36708 -3.03942,0.48454 -1.02784,0.14684 -1.82073,0.22025 -2.37868,0.22025 -0.41114,0 -0.7929,-0.0881 -1.14529,-0.2643 -0.32304,-0.17619 -0.60202,-0.61669 -0.83695,-1.32148 -0.2643,-0.7929 -0.51391,-1.76199 -0.74884,-2.90728 -0.23494,-1.17465 -0.42582,-2.40804 -0.57265,-3.70017 -0.14683,-1.32148 -0.2643,-2.62829 -0.35239,-3.92042 -0.0881,-1.29211 -0.13216,-2.45208 -0.13215,-3.47992 -1e-5,-2.02627 0.044,-4.12596 0.13215,-6.2991 0.0881,-2.20246 0.30834,-4.36089 0.66074,-6.4753 0.35239,-2.14371 0.86631,-4.19936 1.54174,-6.16695 0.70479,-1.99688 1.65919,-3.80291 2.86323,-5.4181 1.20401,-1.61511 2.7017,-2.99533 4.49306,-4.14067 1.8207,-1.14524 4.03787,-1.9675 6.65149,-2.46678 0.0587,-1.38017 0.10277,-2.55483 0.13215,-3.52397 0.0293,-0.99841 0.044,-1.6151 0.044,-1.85008 -2e-5,-1.8794 -0.11748,-3.25962 -0.35239,-4.14067 -0.20559,-0.9103 -0.77823,-1.39485 -1.71794,-1.45364 l 0,-1.62983 c 0.73414,-0.17614 1.4683,-0.32298 2.20248,-0.4405 0.73414,-0.14677 1.42425,-0.26424 2.07033,-0.3524 0.67541,-0.088 1.27742,-0.16145 1.80604,-0.22025 0.52857,-0.0587 0.96907,-0.088 1.32149,-0.0881 0.61667,6e-5 1.10121,0.0882 1.45364,0.26429 0.35237,0.17626 0.61666,0.45524 0.79289,0.83695 0.17617,0.38182 0.27895,0.88105 0.30835,1.49768 0.0587,0.58739 0.0881,1.30687 0.0881,2.15844 -3e-5,0.99851 -0.0294,2.26126 -0.0881,3.78827 -0.0588,1.5271 -0.13218,3.11288 -0.22025,4.75736 2.37865,0.23497 4.31683,0.74889 5.81455,1.54173 1.52702,0.79294 2.73104,1.77672 3.61207,2.95133 0.88096,1.1747 1.48297,2.52555 1.80604,4.05257 0.32299,1.49772 0.4845,3.09819 0.48454,4.80141 -4e-5,1.11595 -0.0441,2.29061 -0.13214,3.52397 -0.0588,1.23342 -0.14688,2.58427 -0.2643,4.05257 -0.0881,1.46834 -0.17624,3.08349 -0.2643,4.84546 -0.0588,1.73263 -0.0881,3.65613 -0.0881,5.7705 -4e-5,2.11439 0.0146,3.90574 0.0441,5.37405 0.0587,1.43897 0.19084,2.64299 0.39645,3.61207 0.23489,0.9691 0.60197,1.73263 1.10124,2.29059 0.49919,0.52859 1.20398,0.91036 2.11438,1.14529 l -0.0881,1.62983"
         id="path3046"
         style="font-variant:normal;font-stretch:normal;fill:#1a1a1a;font-family:Nyala;-inkscape-font-specification:Nyala" />
      <path
         d="m 280.9957,824.66414 7.88489,-1.54174 1.76198,9.69092 c 2.05562,1.38027 3.71483,3.12757 4.97761,5.24191 1.26273,2.11442 2.26118,4.41968 2.99538,6.91579 0.76349,2.46681 1.32145,5.05106 1.67388,7.75274 0.38173,2.70173 0.69008,5.34471 0.92505,7.92893 0.20552,2.1144 0.41109,4.14068 0.61669,6.07885 0.23489,1.90883 0.55792,3.61208 0.96909,5.10976 0.41109,1.49769 0.93969,2.73108 1.58579,3.70017 0.67539,0.93973 1.57106,1.51237 2.68703,1.71794 l -0.0881,1.62983 c -0.26434,0.0881 -0.80762,0.20557 -1.62984,0.3524 -0.8223,0.14683 -1.70329,0.29366 -2.64298,0.4405 -0.93976,0.17619 -1.83543,0.30834 -2.68702,0.39644 -0.85167,0.11747 -1.45368,0.1762 -1.80604,0.1762 -0.70483,0 -1.20406,-0.14683 -1.49769,-0.44049 -0.29369,-0.29367 -0.52862,-0.67543 -0.70479,-1.14529 -0.52863,-1.38022 -0.96912,-2.81918 -1.32149,-4.31687 -0.32306,-1.52705 -0.60204,-3.08347 -0.83694,-4.66926 -0.2056,-1.58578 -0.3818,-3.18625 -0.5286,-4.80141 -0.11749,-1.64451 -0.24964,-3.28902 -0.39645,-4.93356 -0.17622,-1.9088 -0.39647,-3.80293 -0.66074,-5.68241 -0.26433,-1.90879 -0.63141,-3.75887 -1.10124,-5.55025 -0.46989,-1.79132 -1.08659,-3.50925 -1.85009,-5.15381 -0.73418,-1.64448 -1.67391,-3.17153 -2.81917,-4.58116 -2.34934,1.93822 -4.3022,3.97919 -5.8586,6.1229 -1.55644,2.14378 -2.80451,4.37563 -3.74422,6.69555 -0.91038,2.31997 -1.55644,4.72801 -1.93819,7.22414 -0.38177,2.49616 -0.57265,5.06572 -0.57264,7.70868 -10e-6,0.91037 0.0294,1.9382 0.0881,3.08348 0.0881,1.11593 0.27897,2.20249 0.57264,3.25967 0.29365,1.02783 0.71947,1.92351 1.27744,2.68703 0.55795,0.76353 1.32148,1.23339 2.29058,1.40959 l 0.0881,1.45364 c -0.26431,0.11746 -0.77822,0.27898 -1.54174,0.48454 -0.73417,0.1762 -1.55643,0.3524 -2.46678,0.5286 -0.91037,0.1762 -1.83541,0.32303 -2.77512,0.44049 -0.91037,0.11747 -1.6739,0.1762 -2.29058,0.1762 -0.55797,0 -1.04252,-0.24961 -1.45364,-0.74884 -0.38177,-0.49923 -0.71948,-1.14529 -1.01314,-1.93819 -0.26431,-0.79289 -0.48455,-1.67388 -0.66075,-2.64297 -0.14683,-0.96909 -0.2643,-1.90882 -0.3524,-2.81918 -0.0881,-0.91035 -0.14683,-1.73261 -0.17619,-2.46678 -0.0294,-0.76352 -0.0441,-1.33616 -0.0441,-1.71794 -10e-6,-3.28902 0.33771,-6.54869 1.01314,-9.77902 0.70479,-3.25965 1.74729,-6.37248 3.12752,-9.33852 1.40958,-2.99534 3.15688,-5.78515 5.24191,-8.36943 2.085,-2.61357 4.52241,-4.93352 7.31224,-6.95984 l -1.62984,-8.80993"
         id="path3048"
         style="font-variant:normal;font-stretch:normal;fill:#1a1a1a;font-family:Nyala;-inkscape-font-specification:Nyala" />
      <path
         d="m 322.97499,858.22996 c 1.93817,-0.61667 3.7442,-1.10122 5.4181,-1.45364 1.70324,-0.38174 3.25966,-0.57262 4.66927,-0.57264 1.0278,2e-5 1.95284,0.11749 2.77512,0.3524 0.8516,0.23495 1.5564,0.61671 2.11439,1.14529 0.5873,0.49925 1.02779,1.15999 1.32148,1.98223 0.32301,0.79291 0.48452,1.77669 0.48455,2.95133 -3e-5,0.91037 -0.0734,1.80605 -0.22025,2.68702 -0.11749,0.88101 -0.32306,1.70327 -0.61669,2.46678 -0.26433,0.76354 -0.61673,1.45365 -1.05719,2.07034 -0.41116,0.6167 -0.91039,1.11593 -1.49769,1.49768 l 10.43976,0.66075 c 0.76349,0.0587 1.42424,10e-6 1.98224,-0.1762 0.55792,-0.20556 1.0131,-0.58732 1.36554,-1.14529 0.35235,-0.58732 0.61665,-1.40958 0.79289,-2.46678 0.17616,-1.08654 0.26426,-2.49613 0.2643,-4.22876 -4e-5,-0.70478 -0.0294,-1.46831 -0.0881,-2.29059 -0.0294,-0.82224 -0.10283,-1.71791 -0.22025,-2.68702 l 8.50158,0 c 0.17615,1.4977 0.26425,2.86324 0.2643,4.09661 -5e-5,2.4668 -0.27903,4.47839 -0.83695,6.0348 -0.55801,1.55643 -1.27748,2.77514 -2.15843,3.65612 -0.88104,0.881 -1.86481,1.48301 -2.95132,1.80604 -1.0866,0.32303 -2.15848,0.48455 -3.21563,0.48454 -2.17315,1e-5 -4.41968,-0.13214 -6.73959,-0.39644 -2.29062,-0.2643 -4.71334,-0.39644 -7.26819,-0.39645 -1.70328,10e-6 -3.4359,0.14684 -5.19786,0.4405 -1.73264,0.29367 -3.43589,0.77821 -5.10976,1.45364 -1.20404,0.49923 -2.24654,0.99846 -3.12752,1.49768 -0.85164,0.46987 -1.61517,0.89568 -2.29058,1.27744 -0.64608,0.38177 -1.21872,0.69011 -1.71794,0.92504 -0.49924,0.23494 -0.9691,0.3524 -1.40959,0.3524 -1.20403,0 -2.24654,-0.2643 -3.12752,-0.79289 -0.85163,-0.55796 -1.55643,-1.26276 -2.11439,-2.11438 -0.55796,-0.85163 -0.96909,-1.80604 -1.23339,-2.86323 -0.26429,-1.05719 -0.39644,-2.11438 -0.39644,-3.17157 0,-2.46677 0.39644,-4.78672 1.18934,-6.95985 0.82226,-2.20246 1.89413,-4.28748 3.21562,-6.25505 1.32148,-1.96752 2.81917,-3.83229 4.49307,-5.5943 1.67387,-1.79132 3.37712,-3.50926 5.10975,-5.15381 1.43894,-1.38019 2.83385,-2.73104 4.18472,-4.05257 1.35083,-1.32145 2.52549,-2.62825 3.52397,-3.92041 1.0278,-1.29208 1.85006,-2.56952 2.46678,-3.83232 0.61667,-1.26271 0.92502,-2.52547 0.92504,-3.78827 -2e-5,-0.35235 -0.0588,-0.69006 -0.1762,-1.01314 -0.0881,-0.35235 -0.24964,-0.6607 -0.48454,-0.92504 -0.23496,-0.26425 -0.57267,-0.4845 -1.01314,-0.66075 -0.41116,-0.20551 -0.93975,-0.32298 -1.58579,-0.3524 l 0,-1.62983 c 0.4992,-0.0881 1.1159,-0.20552 1.85008,-0.3524 0.76351,-0.14678 1.52703,-0.27893 2.29059,-0.39645 0.76349,-0.14678 1.46829,-0.26424 2.11438,-0.35239 0.64603,-0.088 1.13057,-0.1321 1.45364,-0.13215 1.43892,5e-5 2.49611,0.3965 3.17157,1.18934 0.70476,0.79294 1.05716,1.71798 1.05719,2.77512 -3e-5,1.67394 -0.26433,3.25972 -0.79289,4.75737 -0.49926,1.49773 -1.17469,2.93668 -2.02629,4.31686 -0.85165,1.35089 -1.86479,2.67238 -3.03942,3.96447 -1.14532,1.26279 -2.34934,2.51086 -3.61207,3.74422 -1.05722,1.02785 -2.11441,1.99694 -3.17158,2.90727 -1.05721,0.91039 -2.1144,1.82075 -3.17157,2.73108 -1.02784,0.91039 -2.0263,1.85011 -2.99537,2.81918 -0.96911,0.93975 -1.89415,1.96757 -2.77513,3.08347 m 3.39182,2.02629 c -0.82228,2e-5 -1.6739,0.0881 -2.55488,0.26429 -0.85164,0.14685 -1.68858,0.33774 -2.51083,0.57265 -0.7048,1.17467 -1.3215,2.54021 -1.85008,4.09662 -0.49924,1.55643 -0.74886,3.03943 -0.74885,4.44901 -1e-5,1.4096 0.32302,2.56957 0.9691,3.47992 0.64605,0.91037 1.67387,1.36554 3.08347,1.36554 1.08654,0 2.14373,-0.27898 3.17157,-0.83694 1.05718,-0.58733 1.98222,-1.32149 2.77513,-2.20249 0.82224,-0.88098 1.48299,-1.85007 1.98223,-2.90727 0.49921,-1.08655 0.74883,-2.14374 0.74885,-3.17158 -2e-5,-0.99844 -0.13217,-1.8207 -0.39645,-2.46678 -0.26432,-0.64604 -0.6314,-1.15995 -1.10124,-1.54173 -0.44052,-0.41111 -0.96911,-0.6901 -1.58579,-0.83695 -0.61671,-0.17618 -1.27745,-0.26427 -1.98223,-0.26429"
         id="path3050"
         style="font-variant:normal;font-stretch:normal;fill:#1a1a1a;font-family:Nyala;-inkscape-font-specification:Nyala" />
      <path
         d="m 389.71021,870.82816 -15.99001,5.63835 c 0.0294,0.14684 0.044,0.30835 0.0441,0.48455 0.0294,0.1762 0.044,0.3524 0.044,0.52859 -10e-6,1.32149 -0.27899,2.43742 -0.83694,3.34778 -0.55797,0.91035 -1.30681,1.6592 -2.24653,2.24653 -0.91037,0.58732 -1.98224,1.0425 -3.21562,1.36554 -1.20403,0.32302 -2.46679,0.54327 -3.78827,0.66074 l -0.13215,-0.52859 c 0.44049,-0.7048 0.77821,-1.51238 1.01314,-2.42273 0.26429,-0.881 0.39644,-1.79136 0.39645,-2.73108 -10e-6,-1.23339 -0.24962,-2.42273 -0.74885,-3.56802 -0.49923,-1.17465 -1.35085,-2.0997 -2.55488,-2.77513 l 0,-0.52859 c 0.76353,-0.2643 1.55642,-0.46986 2.37868,-0.6167 0.82226,-0.14682 1.6592,-0.22024 2.51083,-0.22025 1.26275,10e-6 2.43741,0.19089 3.52398,0.57265 1.11591,0.38177 1.9969,0.99846 2.64297,1.85008 l 8.50158,-2.99537 c -1.14531,-2.26121 -2.29059,-4.58115 -3.43587,-6.95985 -1.11594,-2.40803 -2.11439,-4.86012 -2.99537,-7.35629 -0.88101,-2.52548 -1.60049,-5.08036 -2.15844,-7.66463 -0.5286,-2.61358 -0.7929,-5.27124 -0.79289,-7.97299 -10e-6,-2.8485 0.45517,-5.44743 1.36554,-7.79678 0.91035,-2.34927 2.20247,-4.36087 3.87637,-6.0348 1.70323,-1.67384 3.75888,-2.96596 6.16695,-3.87637 2.40802,-0.91031 5.10973,-1.36548 8.10513,-1.36554 1.67386,6e-5 3.25964,0.2203 4.75736,0.66074 1.49765,0.41119 2.81914,1.05725 3.96447,1.93819 1.14525,0.85168 2.04093,1.93823 2.68703,3.25967 0.67538,1.29217 1.0131,2.83391 1.01314,4.62521 -4e-5,2.67239 -0.52864,5.0217 -1.58579,7.04794 -1.02786,1.99696 -2.51087,3.74426 -4.44901,5.24191 -1.90885,1.46836 -4.2288,2.71643 -6.95984,3.74422 -2.73111,0.99849 -5.78521,1.82075 -9.16233,2.46678 0.70477,2.67237 1.70323,5.57964 2.99538,8.72183 1.32146,3.11286 3.02471,6.71024 5.10975,10.79216 l -0.044,0.22025 M 379.755,838.89217 c -2e-5,1.73266 0.13213,3.45059 0.39644,5.15381 0.26428,1.70329 0.58731,3.3478 0.96909,4.93356 4.78671,-1.52702 8.34004,-3.56799 10.66002,-6.1229 2.34928,-2.58421 3.52393,-5.77046 3.52397,-9.55877 -4e-5,-0.99841 -0.13218,-1.95282 -0.39645,-2.86323 -0.23496,-0.93968 -0.60204,-1.76193 -1.10124,-2.46678 -0.46989,-0.70474 -1.0719,-1.2627 -1.80603,-1.67389 -0.73419,-0.44044 -1.6005,-0.66069 -2.59893,-0.66074 -1.82075,5e-5 -3.3478,0.41118 -4.58117,1.23339 -1.23341,0.79294 -2.23186,1.83545 -2.99537,3.12752 -0.73418,1.26281 -1.26278,2.68708 -1.58579,4.27282 -0.32305,1.55646 -0.48456,3.0982 -0.48454,4.62521"
         id="path3052"
         style="font-variant:normal;font-stretch:normal;fill:#1a1a1a;font-family:Nyala;-inkscape-font-specification:Nyala" />
    </g>
    <path
       d="m -284.96404,-362.30194 a 62.932503,62.932503 0 1 1 -125.86501,0 62.932503,62.932503 0 1 1 125.86501,0 z"
       transform="matrix(6.3395863e-6,0,0,6.3395863e-6,-106.36117,716.67245)"
       id="path3936"
       style="opacity:0.50617281;fill:#000080;fill-opacity:1;stroke:none" />
    <g
       id="text3036"
       style="font-size:28.08388901px;font-style:normal;font-weight:normal;line-height:125%;letter-spacing:0px;word-spacing:0px;fill:#ffffff;fill-opacity:1;stroke:none;font-family:Sans;-inkscape-font-specification:Sans">
      <path
         d="m 299.41488,709.25549 -2.60544,0 0,-21.25489 2.60544,0 0,21.25489"
         id="path3027"
         style="font-variant:normal;font-weight:500;font-stretch:normal;text-align:center;line-height:125%;writing-mode:lr-tb;text-anchor:middle;fill:#ffffff;font-family:KacstDigital;-inkscape-font-specification:KacstDigital Medium" />
      <path
         d="m 294.06686,709.25549 -8.09057,0 0,-2.46831 5.48514,0 0,-18.78658 2.60543,0 0,21.25489"
         id="path3029"
         style="font-variant:normal;font-weight:500;font-stretch:normal;text-align:center;line-height:125%;writing-mode:lr-tb;text-anchor:middle;fill:#ffffff;font-family:KacstDigital;-inkscape-font-specification:KacstDigital Medium" />
      <path
         d="m 286.84022,706.78718 0,2.46831 -1.87866,0 -10.2572,0 0,-2.46831 7.67919,0 0,-7.81631 2.60543,0 0,7.81631 1.85124,0"
         id="path3031"
         style="font-variant:normal;font-weight:500;font-stretch:normal;text-align:center;line-height:125%;writing-mode:lr-tb;text-anchor:middle;fill:#ffffff;font-family:KacstDigital;-inkscape-font-specification:KacstDigital Medium" />
      <path
         d="m 271.93435,709.25549 -16.30456,0 -0.0137,-2.46831 7.40493,0 0,-7.81631 8.91334,0 0,2.46831 -6.3079,0 0,5.348 6.3079,0 0,2.46831"
         id="path3033"
         style="font-variant:normal;font-weight:500;font-stretch:normal;text-align:center;line-height:125%;writing-mode:lr-tb;text-anchor:middle;fill:#ffffff;font-family:KacstDigital;-inkscape-font-specification:KacstDigital Medium" />
      <path
         d="m 255.14984,717.4832 -13.02719,0 0,-2.60544 10.42175,0 0,-5.62227 -6.3079,0 0,-10.01037 8.91334,0 0,7.54206 1.37128,0 0,2.46831 -1.37128,0 0,8.22771 m -2.60544,-10.79201 0,-4.97776 -3.70246,0 0,4.97776 3.70246,0"
         id="path3035"
         style="font-variant:normal;font-weight:500;font-stretch:normal;text-align:center;line-height:125%;writing-mode:lr-tb;text-anchor:middle;fill:#ffffff;font-family:KacstDigital;-inkscape-font-specification:KacstDigital Medium" />
      <path
         d="m 239.40751,709.25549 -8.91334,0 0,-10.01037 8.91334,0 0,10.01037 m -2.60544,-2.60544 0,-4.93662 -3.70246,0 0,4.93662 3.70246,0 m -5.58112,-9.11903 0,-2.52316 2.60544,0 0,2.52316 -2.60544,0 m 4.95033,0 0,-2.52316 2.60544,0 0,2.52316 -2.60544,0"
         id="path3037"
         style="font-variant:normal;font-weight:500;font-stretch:normal;text-align:center;line-height:125%;writing-mode:lr-tb;text-anchor:middle;fill:#ffffff;font-family:KacstDigital;-inkscape-font-specification:KacstDigital Medium" />
      <path
         d="m 220.8129,709.25549 -2.60544,0 0,-21.25489 2.60544,0 0,21.25489"
         id="path3039"
         style="font-variant:normal;font-weight:500;font-stretch:normal;text-align:center;line-height:125%;writing-mode:lr-tb;text-anchor:middle;fill:#ffffff;font-family:KacstDigital;-inkscape-font-specification:KacstDigital Medium" />
      <path
         d="m 215.46489,709.25549 -8.09057,0 0,-2.46831 5.48514,0 0,-18.78658 2.60543,0 0,21.25489"
         id="path3041"
         style="font-variant:normal;font-weight:500;font-stretch:normal;text-align:center;line-height:125%;writing-mode:lr-tb;text-anchor:middle;fill:#ffffff;font-family:KacstDigital;-inkscape-font-specification:KacstDigital Medium" />
      <path
         d="m 208.43021,706.75976 0,2.49573 -21.59772,0 0,-2.46831 3.29108,0 0,-7.81631 2.60544,0 0,7.81631 4.25098,0 0,-7.81631 2.60544,0 0,7.81631 4.25098,0 0,-7.81631 2.60544,0 0,7.78889 1.98836,0"
         id="path3043"
         style="font-variant:normal;font-weight:500;font-stretch:normal;text-align:center;line-height:125%;writing-mode:lr-tb;text-anchor:middle;fill:#ffffff;font-family:KacstDigital;-inkscape-font-specification:KacstDigital Medium" />
      <path
         d="m 179.40013,709.25549 0,-2.46831 4.38811,0 0,-18.78658 2.60544,0 0,18.78658 1.30272,0 0,2.46831 -8.29627,0"
         id="path3045"
         style="font-variant:normal;font-weight:500;font-stretch:normal;text-align:center;line-height:125%;writing-mode:lr-tb;text-anchor:middle;fill:#ffffff;font-family:KacstDigital;-inkscape-font-specification:KacstDigital Medium" />
      <path
         d="m 180.22291,709.26921 -13.0272,-0.0137 0,-2.46831 8.63909,0 0,-3.01682 -6.85642,0 0,-8.09057 9.46186,0 0,11.10739 1.78267,0 0,2.48203 m -4.38811,-7.55578 0,-3.97672 -4.52523,0 0,3.97672 4.52523,0 m -3.15395,-7.35008 0,-2.52316 2.60544,0 0,2.52316 -2.60544,0"
         id="path3047"
         style="font-variant:normal;font-weight:500;font-stretch:normal;text-align:center;line-height:125%;writing-mode:lr-tb;text-anchor:middle;fill:#ffffff;font-family:KacstDigital;-inkscape-font-specification:KacstDigital Medium" />
      <path
         d="m 167.88135,709.25549 -9.05047,0 0,-2.45459 5.48514,0 0,-7.83003 2.60544,0 0,7.8026 0.95989,0 0,2.48202 m -2.19405,4.22356 0,-2.52317 -2.60544,0 0,2.52317 2.60544,0 m -3.70247,0 0,-2.52317 -2.60543,0 0,2.52317 2.60543,0"
         id="path3049"
         style="font-variant:normal;font-weight:500;font-stretch:normal;text-align:center;line-height:125%;writing-mode:lr-tb;text-anchor:middle;fill:#ffffff;font-family:KacstDigital;-inkscape-font-specification:KacstDigital Medium" />
      <path
         d="m 157.07564,706.77347 2.30376,0 0,2.50945 -4.84063,0 0,-2.83856 -6.37647,0 0,-7.2678 8.91334,0 0,7.59691 m -2.60544,-2.93455 0,-2.19405 -3.70246,0 0,2.19405 3.70246,0 m -5.58112,-6.37647 0,-2.52316 2.60544,0 0,2.52316 -2.60544,0 m 4.95033,0 0,-2.52316 2.60544,0 0,2.52316 -2.60544,0"
         id="path3051"
         style="font-variant:normal;font-weight:500;font-stretch:normal;text-align:center;line-height:125%;writing-mode:lr-tb;text-anchor:middle;fill:#ffffff;font-family:KacstDigital;-inkscape-font-specification:KacstDigital Medium" />
      <path
         d="m 279.53127,744.37407 -15.22125,-0.0137 0,-2.46831 12.61581,0 0,-3.01682 -6.85642,0 0,-8.09057 9.46186,0 0,13.58942 m -2.60544,-7.55578 0,-3.97672 -4.52523,0 0,3.97672 4.52523,0 m -3.15395,-7.35008 0,-2.52316 2.60544,0 0,2.52316 -2.60544,0"
         id="path3053"
         style="font-variant:normal;font-weight:500;font-stretch:normal;text-align:center;line-height:125%;writing-mode:lr-tb;text-anchor:middle;fill:#ffffff;font-family:KacstDigital;-inkscape-font-specification:KacstDigital Medium" />
      <path
         d="m 249.56873,754.13761 0,-2.52317 -2.60544,0 0,2.52317 2.60544,0 m 4.8132,0 0,-2.52317 -2.60544,0 0,2.52317 2.60544,0 m 3.77103,-2.9894 -14.5356,0 0,-9.1876 6.3079,0 0,2.60544 -3.70247,0 0,3.97672 9.32473,0 0,-6.66444 10.42176,0 0,2.50945 -7.81632,0 0,6.76043"
         id="path3055"
         style="font-variant:normal;font-weight:500;font-stretch:normal;text-align:center;line-height:125%;writing-mode:lr-tb;text-anchor:middle;fill:#ffffff;font-family:KacstDigital;-inkscape-font-specification:KacstDigital Medium" />
      <path
         d="m 233.86752,744.36035 -2.60543,0 0,-21.25489 2.60543,0 0,21.25489"
         id="path3057"
         style="font-variant:normal;font-weight:500;font-stretch:normal;text-align:center;line-height:125%;writing-mode:lr-tb;text-anchor:middle;fill:#ffffff;font-family:KacstDigital;-inkscape-font-specification:KacstDigital Medium" />
      <path
         d="m 228.51952,744.36035 -8.09057,0 0,-2.46831 5.48513,0 0,-18.78658 2.60544,0 0,21.25489"
         id="path3059"
         style="font-variant:normal;font-weight:500;font-stretch:normal;text-align:center;line-height:125%;writing-mode:lr-tb;text-anchor:middle;fill:#ffffff;font-family:KacstDigital;-inkscape-font-specification:KacstDigital Medium" />
      <path
         d="m 201.1487,744.36035 0,-2.46831 15.90689,0 0,-5.07375 -7.54206,0 0,1.90609 -2.46831,0 0,-4.3744 12.49239,0 0,7.51464 1.78267,0 0,2.49573 -20.17158,0"
         id="path3061"
         style="font-variant:normal;font-weight:500;font-stretch:normal;text-align:center;line-height:125%;writing-mode:lr-tb;text-anchor:middle;fill:#ffffff;font-family:KacstDigital;-inkscape-font-specification:KacstDigital Medium" />
      <path
         d="m 201.72464,744.36035 -9.05048,0 0,-2.45459 5.48514,0 0,-7.83003 2.60544,0 0,7.81631 0.9599,0 0,2.46831 m -1.59069,4.31955 0,-2.52316 -2.60544,0 0,2.52316 2.60544,0"
         id="path3063"
         style="font-variant:normal;font-weight:500;font-stretch:normal;text-align:center;line-height:125%;writing-mode:lr-tb;text-anchor:middle;fill:#ffffff;font-family:KacstDigital;-inkscape-font-specification:KacstDigital Medium" />
      <path
         d="m 193.29124,741.89204 0,2.46831 -21.59772,0 0,-2.46831 3.29109,0 0,-7.81631 2.60543,0 0,7.81631 4.25098,0 0,-7.81631 2.60544,0 0,7.81631 4.25098,0 0,-7.81631 2.60544,0 0,7.81631 1.98836,0 m -18.32035,-9.25616 0,-2.52316 2.60544,0 0,2.52316 -2.60544,0 m 6.87013,0 0,-2.52316 2.60544,0 0,2.52316 -2.60544,0 m 6.85642,0 0,-2.52316 2.60544,0 0,2.52316 -2.60544,0"
         id="path3065"
         style="font-variant:normal;font-weight:500;font-stretch:normal;text-align:center;line-height:125%;writing-mode:lr-tb;text-anchor:middle;fill:#ffffff;font-family:KacstDigital;-inkscape-font-specification:KacstDigital Medium" />
      <path
         d="m 170.07541,741.87833 2.30376,0 0,2.50945 -4.84064,0 0,-2.83856 -6.37646,0 0,-7.2678 8.91334,0 0,7.59691 m -2.60544,-2.93455 0,-2.19405 -3.70247,0 0,2.19405 3.70247,0 m -5.58112,-6.37646 0,-2.52317 2.60543,0 0,2.52317 -2.60543,0 m 4.95033,0 0,-2.52317 2.60544,0 0,2.52317 -2.60544,0"
         id="path3067"
         style="font-variant:normal;font-weight:500;font-stretch:normal;text-align:center;line-height:125%;writing-mode:lr-tb;text-anchor:middle;fill:#ffffff;font-family:KacstDigital;-inkscape-font-specification:KacstDigital Medium" />
    </g>
    <g
       id="text3042"
       style="font-size:33.03088379px;font-style:normal;font-weight:normal;line-height:125%;letter-spacing:0px;word-spacing:0px;fill:#ffffff;fill-opacity:1;stroke:none;font-family:Sans;-inkscape-font-specification:Sans">
      <path
         d="m 186.96998,926.3319 c -0.15276,0.0509 -0.4752,0.1188 -0.96733,0.20365 -0.49218,0.0849 -1.02676,0.16971 -1.60374,0.25456 -0.56006,0.10183 -1.1201,0.1782 -1.68011,0.22911 -0.54309,0.0679 -0.95038,0.10182 -1.2219,0.10182 -0.25458,0 -0.44974,-0.0848 -0.58549,-0.25456 -0.11881,-0.15273 -0.22064,-0.37335 -0.30547,-0.66186 -0.13579,-0.45821 -0.2461,-1.0437 -0.33093,-1.75648 -0.0849,-0.71277 -0.15276,-1.42554 -0.20365,-2.13832 -0.034,-0.72973 -0.0594,-1.40008 -0.0764,-2.01103 -2e-5,-0.62792 -2e-5,-1.08613 0,-1.37464 -2e-5,-1.42554 0.017,-2.87654 0.0509,-4.35301 0.0509,-1.49341 0.10181,-2.90199 0.15274,-4.22572 0.0509,-1.34068 0.0933,-2.55409 0.12728,-3.64024 0.0509,-1.08611 0.0763,-1.93465 0.0764,-2.54562 -2e-5,-1.00125 -0.0594,-1.97707 -0.1782,-2.92746 -0.10184,-0.95034 -0.31397,-1.79039 -0.6364,-2.52016 -0.30549,-0.74669 -0.73825,-1.34067 -1.29827,-1.78194 -0.56005,-0.45818 -1.28979,-0.68728 -2.18923,-0.68731 -1.08614,3e-5 -2.00256,0.33096 -2.74927,0.99279 -0.74672,0.64492 -1.36616,1.49346 -1.8583,2.54562 -0.47519,1.05221 -0.84855,2.24017 -1.12007,3.56386 -0.25457,1.32375 -0.44125,2.64747 -0.56004,3.97117 -0.1188,1.30677 -0.19517,2.55412 -0.2291,3.74206 -0.017,1.18797 -0.0255,2.18076 -0.0255,2.97837 -1e-5,0.52611 -1e-5,1.18797 0,1.98559 0.017,0.79763 0.0424,1.62072 0.0764,2.46925 0.0339,0.84854 0.0848,1.66314 0.15274,2.44379 0.0848,0.76369 0.19515,1.38312 0.33093,1.8583 0.23758,0.76369 0.54305,1.31524 0.91642,1.65465 0.37335,0.33942 0.87399,0.57701 1.50191,0.71278 l -0.0509,0.94188 c -0.15275,0.0679 -0.47519,0.16122 -0.96733,0.28001 -0.49217,0.1188 -1.03523,0.22911 -1.6292,0.33094 -0.59398,0.11879 -1.18796,0.21213 -1.78193,0.28001 -0.59399,0.0849 -1.0522,0.12728 -1.37464,0.12728 -0.25456,0 -0.48367,-0.0509 -0.68731,-0.15273 -0.18669,-0.10183 -0.34791,-0.35639 -0.48367,-0.76369 -0.16971,-0.54306 -0.32245,-1.22189 -0.45821,-2.03649 -0.1188,-0.83157 -0.22911,-1.70556 -0.33093,-2.62199 -0.0849,-0.91642 -0.15274,-1.83284 -0.20365,-2.74927 -0.034,-0.91641 -0.0509,-1.7395 -0.0509,-2.46925 -1e-5,-1.5613 0.0339,-3.19898 0.10182,-4.91304 0.0679,-1.71404 0.2291,-3.39414 0.48367,-5.04033 0.25456,-1.64614 0.64488,-3.20746 1.17098,-4.68394 0.52609,-1.4934 1.24735,-2.80015 2.16378,-3.92025 0.91641,-1.12004 2.06194,-2.01101 3.43658,-2.6729 1.37463,-0.66183 3.04625,-0.99276 5.01487,-0.99279 1.73101,3e-5 3.14807,0.27156 4.25119,0.8146 1.10308,0.54309 1.9601,1.28132 2.57107,2.21468 0.6279,0.93343 1.05217,2.02804 1.27281,3.28385 0.23757,1.2389 0.35636,2.5711 0.35639,3.99662 -3e-5,0.84857 -0.0255,1.74802 -0.0764,2.69836 -0.034,0.93341 -0.0849,1.96014 -0.15274,3.0802 -0.0509,1.10312 -0.10185,2.31653 -0.15274,3.64023 -0.034,1.32374 -0.0509,2.80019 -0.0509,4.42938 -2e-5,1.20493 0.008,2.23167 0.0255,3.0802 0.0339,0.83157 0.11029,1.52737 0.2291,2.08741 0.13575,0.54306 0.34788,0.97582 0.63641,1.29826 0.28848,0.30548 0.69578,0.5261 1.2219,0.66186 l -0.0509,0.94188"
         id="path3018"
         style="font-size:52.13427353px;font-variant:normal;font-stretch:normal;fill:#ffffff;font-family:Nyala;-inkscape-font-specification:Nyala" />
      <path
         d="m 205.32389,896.11541 c 0.42426,-0.1018 0.8655,-0.19514 1.32373,-0.28002 0.45819,-0.0848 0.89094,-0.15271 1.29826,-0.20365 0.42425,-0.0679 0.80609,-0.11877 1.14553,-0.15274 0.3394,-0.0509 0.61093,-0.0763 0.8146,-0.0764 0.64487,3e-5 1.06914,0.16974 1.27281,0.50913 0.2206,0.33944 0.33091,0.75523 0.33093,1.24735 -2e-5,0.3055 -0.0255,0.63643 -0.0764,0.99279 -0.27156,1.69711 -0.54309,3.46207 -0.8146,5.29489 -0.27155,1.8159 -0.5346,3.6742 -0.78914,5.5749 1.2049,-0.2206 2.31649,-0.42425 3.33476,-0.61094 1.01822,-0.18666 1.94313,-0.30546 2.77473,-0.35639 0.84851,-0.0679 1.60371,-0.0339 2.2656,0.10182 0.66183,0.11882 1.22186,0.39035 1.6801,0.8146 0.47516,0.42429 0.84851,1.01827 1.12008,1.78194 0.28847,0.74673 0.47515,1.72254 0.56003,2.92746 l 0.5855,8.40054 c 0.0509,0.69581 0.11876,1.26433 0.20364,1.70556 0.1018,0.42428 0.22908,0.76369 0.38185,1.01825 0.1527,0.25456 0.33089,0.44124 0.53458,0.56004 0.22058,0.10182 0.48363,0.16122 0.78914,0.17819 l 0,0.94188 c -0.32248,0.0848 -0.67887,0.16122 -1.06916,0.22911 -0.37339,0.0679 -0.74675,0.13576 -1.12007,0.20364 -0.37339,0.0679 -0.72978,0.1188 -1.06916,0.15274 -0.33945,0.0339 -0.61947,0.0509 -0.84006,0.0509 -0.4243,0 -0.78068,-0.0764 -1.06916,-0.2291 -0.27156,-0.15274 -0.50066,-0.4073 -0.68731,-0.76369 -0.16974,-0.35638 -0.30551,-0.83156 -0.4073,-1.42554 -0.10186,-0.61095 -0.18671,-1.36615 -0.25456,-2.2656 l -0.48367,-6.87318 c -0.0849,-1.13703 -0.25459,-2.07042 -0.50913,-2.80018 -0.23761,-0.7467 -0.63643,-1.30673 -1.19644,-1.6801 -0.54309,-0.39032 -1.28132,-0.61094 -2.21469,-0.66187 -0.91644,-0.0679 -2.09591,2e-5 -3.53841,0.20365 -0.28852,2.13834 -0.56854,4.2512 -0.84005,6.3386 -0.25458,2.07044 -0.49217,4.06451 -0.71277,5.9822 -0.017,0.13577 -0.034,0.27154 -0.0509,0.4073 -1e-5,0.13577 -1e-5,0.27153 0,0.4073 -1e-5,0.45821 0.0848,0.85702 0.25457,1.19644 0.18666,0.33942 0.56001,0.50912 1.12007,0.50912 l 0,0.94188 c -0.42429,0.10183 -0.85705,0.19517 -1.29827,0.28002 -0.44126,0.0848 -0.86553,0.15274 -1.27281,0.20365 -0.40731,0.0679 -0.77218,0.11879 -1.09461,0.15274 -0.32246,0.0509 -0.58551,0.0764 -0.78914,0.0764 -0.62794,0 -1.09464,-0.15273 -1.40009,-0.45821 -0.28852,-0.30547 -0.43277,-0.81459 -0.43276,-1.52737 -1e-5,-0.11879 -1e-5,-0.23759 0,-0.35639 0.017,-0.13576 0.0339,-0.27153 0.0509,-0.40729 0.23758,-2.08741 0.50063,-4.26815 0.78914,-6.54224 0.30546,-2.29105 0.61942,-4.59908 0.94188,-6.92409 -1.35767,-0.0339 -2.5626,0.13578 -3.61478,0.50913 -1.0522,0.3564 -1.96862,0.84855 -2.74926,1.47645 -0.7637,0.62794 -1.40859,1.35768 -1.93467,2.18924 -0.52611,0.81461 -0.95038,1.65466 -1.27281,2.52016 -0.32245,0.86552 -0.55156,1.72254 -0.68732,2.57107 -0.13577,0.83158 -0.20366,1.58678 -0.20365,2.26561 -10e-6,0.33942 0.008,0.68732 0.0255,1.0437 0.0339,0.35639 0.10182,0.68732 0.20365,0.99279 0.11879,0.30548 0.28001,0.56004 0.48366,0.76369 0.22062,0.18668 0.51761,0.28002 0.89097,0.28001 l 0.0255,0.94188 c -1.12008,0.25457 -2.02802,0.43276 -2.72382,0.53458 -0.6958,0.1188 -1.27281,0.1782 -1.73102,0.1782 -0.45821,0 -0.83157,-0.14426 -1.12007,-0.43276 -0.27153,-0.27153 -0.48367,-0.61095 -0.6364,-1.01825 -0.13577,-0.42426 -0.22911,-0.8655 -0.28002,-1.32372 -0.0509,-0.47518 -0.0764,-0.89945 -0.0764,-1.27281 0,-0.89944 0.10182,-1.86678 0.30547,-2.902 0.20365,-1.05218 0.54307,-2.0874 1.01825,-3.10566 0.49215,-1.03521 1.12856,-2.028 1.90922,-2.97837 0.79762,-0.96732 1.77344,-1.80738 2.92746,-2.52016 1.154,-0.72973 2.51167,-1.29825 4.07299,-1.70557 1.5613,-0.42425 3.3602,-0.61942 5.39671,-0.58549 0.23757,-1.69706 0.47516,-3.3602 0.71277,-4.98941 0.23758,-1.62918 0.47517,-3.21594 0.71278,-4.76031 0.0509,-0.25454 0.0763,-0.52607 0.0764,-0.8146 -1e-5,-0.42424 -0.0933,-0.80608 -0.28001,-1.14553 -0.16973,-0.33938 -0.50066,-0.52606 -0.9928,-0.56003 l 0,-0.94188"
         id="path3020"
         style="font-size:52.13427353px;font-variant:normal;font-stretch:normal;fill:#ffffff;font-family:Nyala;-inkscape-font-specification:Nyala" />
      <path
         d="m 250.50863,926.3319 c -0.15276,0.0509 -0.47521,0.1188 -0.96734,0.20365 -0.49217,0.0849 -1.02675,0.16971 -1.60374,0.25456 -0.56005,0.10183 -1.12009,0.1782 -1.6801,0.22911 -0.54309,0.0679 -0.95039,0.10182 -1.2219,0.10182 -0.25458,0 -0.44975,-0.0848 -0.58549,-0.25456 -0.11882,-0.15273 -0.22064,-0.37335 -0.30548,-0.66186 -0.13578,-0.45821 -0.24609,-1.0437 -0.33093,-1.75648 -0.0849,-0.71277 -0.15275,-1.42554 -0.20365,-2.13832 -0.034,-0.72973 -0.0594,-1.40008 -0.0764,-2.01103 -1e-5,-0.62792 -1e-5,-1.08613 0,-1.37464 -1e-5,-1.42554 0.017,-2.87654 0.0509,-4.35301 0.0509,-1.49341 0.1018,-2.90199 0.15273,-4.22572 0.0509,-1.34068 0.0933,-2.55409 0.12728,-3.64024 0.0509,-1.08611 0.0763,-1.93465 0.0764,-2.54562 -2e-5,-1.00125 -0.0594,-1.97707 -0.17819,-2.92746 -0.10184,-0.95034 -0.31398,-1.79039 -0.6364,-2.52016 -0.3055,-0.74669 -0.73825,-1.34067 -1.29827,-1.78194 -0.56005,-0.45818 -1.2898,-0.68728 -2.18923,-0.68731 -1.08615,3e-5 -2.00257,0.33096 -2.74927,0.99279 -0.74673,0.64492 -1.36616,1.49346 -1.8583,2.54562 -0.47519,1.05221 -0.84855,2.24017 -1.12007,3.56386 -0.25457,1.32375 -0.44125,2.64747 -0.56004,3.97117 -0.1188,1.30677 -0.19517,2.55412 -0.22911,3.74206 -0.017,1.18797 -0.0255,2.18076 -0.0255,2.97837 -1e-5,0.52611 -1e-5,1.18797 0,1.98559 0.017,0.79763 0.0424,1.62072 0.0764,2.46925 0.0339,0.84854 0.0848,1.66314 0.15273,2.44379 0.0848,0.76369 0.19516,1.38312 0.33093,1.8583 0.23759,0.76369 0.54306,1.31524 0.91643,1.65465 0.37334,0.33942 0.87398,0.57701 1.50191,0.71278 l -0.0509,0.94188 c -0.15275,0.0679 -0.47519,0.16122 -0.96734,0.28001 -0.49216,0.1188 -1.03522,0.22911 -1.62919,0.33094 -0.59399,0.11879 -1.18796,0.21213 -1.78194,0.28001 -0.59398,0.0849 -1.05219,0.12728 -1.37463,0.12728 -0.25457,0 -0.48367,-0.0509 -0.68732,-0.15273 -0.18668,-0.10183 -0.3479,-0.35639 -0.48366,-0.76369 -0.16972,-0.54306 -0.32245,-1.22189 -0.45822,-2.03649 -0.11879,-0.83157 -0.2291,-1.70556 -0.33093,-2.62199 -0.0849,-0.91642 -0.15274,-1.83284 -0.20365,-2.74927 -0.0339,-0.91641 -0.0509,-1.7395 -0.0509,-2.46925 0,-1.5613 0.0339,-3.19898 0.10183,-4.91304 0.0679,-1.71404 0.2291,-3.39414 0.48366,-5.04033 0.25456,-1.64614 0.64489,-3.20746 1.17099,-4.68394 0.52609,-1.4934 1.24735,-2.80015 2.16377,-3.92025 0.91642,-1.12004 2.06195,-2.01101 3.43659,-2.6729 1.37462,-0.66183 3.04624,-0.99276 5.01487,-0.99279 1.731,3e-5 3.14806,0.27156 4.25118,0.8146 1.10308,0.54309 1.96011,1.28132 2.57108,2.21468 0.62789,0.93343 1.05216,2.02804 1.27281,3.28385 0.23757,1.2389 0.35636,2.5711 0.35638,3.99662 -2e-5,0.84857 -0.0255,1.74802 -0.0764,2.69836 -0.034,0.93341 -0.0849,1.96014 -0.15274,3.0802 -0.0509,1.10312 -0.10185,2.31653 -0.15274,3.64023 -0.034,1.32374 -0.0509,2.80019 -0.0509,4.42938 -2e-5,1.20493 0.008,2.23167 0.0255,3.0802 0.0339,0.83157 0.11029,1.52737 0.22911,2.08741 0.13574,0.54306 0.34788,0.97582 0.63641,1.29826 0.28847,0.30548 0.69577,0.5261 1.22189,0.66186 l -0.0509,0.94188"
         id="path3022"
         style="font-size:52.13427353px;font-variant:normal;font-stretch:normal;fill:#ffffff;font-family:Nyala;-inkscape-font-specification:Nyala" />
      <path
         d="m 264.50954,894.35893 -5.01487,0.4073 c -0.18669,1.08616 -0.80612,1.91773 -1.8583,2.49471 -1.0522,0.57703 -2.46077,0.93342 -4.22573,1.06916 l -0.0764,-0.4073 c 0.39033,-0.54304 0.68732,-1.09459 0.89097,-1.65466 0.22062,-0.57697 0.33093,-1.13701 0.33093,-1.6801 0,-0.64486 -0.16123,-1.23884 -0.48367,-1.78194 -0.30548,-0.56 -0.78914,-1.01821 -1.451,-1.37463 l 0.0255,-0.4073 c 0.76369,-0.20361 1.56131,-0.30544 2.39289,-0.30548 0.54306,4e-5 1.06067,0.0509 1.55282,0.15274 0.49215,0.10186 0.93339,0.26308 1.32372,0.48367 0.4073,0.20368 0.73823,0.47522 0.9928,0.8146 0.25455,0.32248 0.41577,0.7128 0.48366,1.17098 l 15.01915,-1.32372 c 0.50911,-1.88372 2.38438,-2.92742 5.62582,-3.13111 l 0.0509,0.43275 c -0.39035,0.96738 -0.58552,1.8838 -0.58549,2.74927 -3e-5,0.71281 0.13574,1.37467 0.4073,1.98559 0.28848,0.59401 0.74669,1.08616 1.37464,1.47645 l 0.0254,0.4073 c -0.39036,0.0849 -0.79765,0.16126 -1.2219,0.22911 -0.40732,0.0509 -0.81462,0.0764 -1.22189,0.0764 -0.50915,3e-5 -1.00979,-0.0509 -1.50192,-0.15274 -0.4752,-0.10179 -0.90796,-0.25453 -1.29826,-0.45821 -0.37338,-0.22059 -0.70431,-0.50061 -0.99279,-0.84005 -0.27156,-0.35636 -0.45824,-0.78911 -0.56004,-1.29827 l -5.72764,0.48367 -0.1782,6.26222 c 1.28977,0.13579 2.35044,0.44127 3.18203,0.91642 0.83155,0.45824 1.48492,1.03524 1.96012,1.73102 0.49213,0.67886 0.82306,1.45951 0.99279,2.34197 0.18666,0.8825 0.28,1.80741 0.28002,2.77473 -2e-5,0.6449 -0.0255,1.31525 -0.0764,2.01104 -0.034,0.67884 -0.0849,1.43404 -0.15273,2.2656 -0.0509,0.81461 -0.10185,1.71406 -0.15274,2.69835 -0.034,0.96735 -0.0509,2.06196 -0.0509,3.28385 -2e-5,1.20493 0.008,2.23167 0.0254,3.0802 0.0339,0.83157 0.11029,1.52737 0.22911,2.08741 0.13574,0.54306 0.34788,0.96733 0.6364,1.27281 0.28848,0.30547 0.69578,0.52609 1.2219,0.66186 l -0.0509,0.96733 c -0.15276,0.0509 -0.47521,0.1188 -0.96734,0.20365 -0.49217,0.0849 -1.02675,0.16971 -1.60374,0.25456 -0.56005,0.10183 -1.1116,0.1782 -1.65465,0.22911 -0.54308,0.0679 -0.95038,0.10182 -1.2219,0.10182 -0.25458,0 -0.44974,-0.0848 -0.58549,-0.25456 -0.11881,-0.15273 -0.22064,-0.37335 -0.30547,-0.66186 -0.13579,-0.45821 -0.2461,-1.03522 -0.33093,-1.73102 -0.0849,-0.6958 -0.15276,-1.40009 -0.20365,-2.11286 -0.034,-0.71277 -0.0594,-1.37463 -0.0764,-1.98559 -2e-5,-0.62791 -2e-5,-1.08612 0,-1.37463 -2e-5,-1.05218 0.017,-2.11285 0.0509,-3.18202 0.0509,-1.08612 0.10181,-2.11285 0.15274,-3.0802 0.0509,-0.96732 0.0933,-1.84132 0.12728,-2.62199 0.0509,-0.79761 0.0763,-1.42553 0.0764,-1.88376 -2e-5,-0.72972 -0.0509,-1.45947 -0.15274,-2.18923 -0.10184,-0.74669 -0.297,-1.41704 -0.58549,-2.01104 -0.27155,-0.59395 -0.66188,-1.07762 -1.17099,-1.451 -0.50913,-0.37333 -1.16251,-0.56001 -1.96012,-0.56004 -0.89947,3e-5 -1.67164,0.18671 -2.31652,0.56004 -0.6449,0.37338 -1.18796,0.84856 -1.62919,1.42555 -0.42428,0.56005 -0.7637,1.18797 -1.01825,1.88375 -0.25457,0.69583 -0.44973,1.36617 -0.58549,2.01104 -0.13578,0.62794 -0.22063,1.19646 -0.25456,1.70557 -0.034,0.50914 -0.0509,0.86552 -0.0509,1.06916 0,0.72976 0.017,1.44253 0.0509,2.13832 0.0509,0.69581 0.15273,1.31525 0.30547,1.8583 0.15273,0.54307 0.38184,0.98432 0.68732,1.32372 0.30546,0.33943 0.72125,0.5261 1.24735,0.56004 l -0.0509,0.91642 c -0.15275,0.0679 -0.45822,0.15275 -0.91642,0.25456 -0.45822,0.10183 -0.96735,0.20366 -1.52737,0.30547 -0.56005,0.10184 -1.12008,0.19518 -1.68011,0.28002 -0.54307,0.0679 -0.97583,0.10184 -1.29827,0.10183 -0.25457,10e-6 -0.48367,-0.0339 -0.68732,-0.10183 -0.18668,-0.0679 -0.3479,-0.23758 -0.48366,-0.50912 -0.10183,-0.30547 -0.19517,-0.68731 -0.28002,-1.14553 -0.0849,-0.47517 -0.16123,-0.96732 -0.22911,-1.47646 -0.0509,-0.50911 -0.0933,-1.01823 -0.12728,-1.52737 -0.0339,-0.50911 -0.0509,-0.96732 -0.0509,-1.37463 0,-1.08612 0.12728,-2.24013 0.38184,-3.46205 0.25456,-1.23884 0.71277,-2.40983 1.37464,-3.51295 0.67882,-1.12005 1.59524,-2.11284 2.74926,-2.97837 1.17098,-0.88246 2.66441,-1.50189 4.48029,-1.8583 l 0.1782,-6.10949"
         id="path3024"
         style="font-size:52.13427353px;font-variant:normal;font-stretch:normal;fill:#ffffff;font-family:Nyala;-inkscape-font-specification:Nyala" />
    </g>
    <g
       transform="matrix(0.94083133,0,0,0.94083133,517.84994,407.91256)"
       id="text3091"
       style="font-size:27.72548676px;font-style:normal;font-variant:normal;font-weight:500;font-stretch:normal;text-align:start;line-height:125%;letter-spacing:1.39999998px;word-spacing:0px;writing-mode:lr-tb;text-anchor:start;fill:#ffffff;fill-opacity:1;stroke:none;font-family:Montserrat;-inkscape-font-specification:Montserrat Medium">
      <path
         d="m -409.43556,565.41148 c 0.20869,0.22497 0.40842,0.43362 0.59919,0.62597 0.20351,0.19284 0.43181,0.40577 0.68492,0.63877 0.25923,0.23963 0.47809,0.44901 0.65659,0.62813 -0.0411,0.0751 -0.14087,0.17992 -0.29918,0.31448 -0.15219,0.14118 -0.25662,0.20113 -0.31328,0.17984 -0.0921,-0.0992 -0.20305,-0.20559 -0.3329,-0.31903 -0.12987,-0.11343 -0.30815,-0.21271 -0.53486,-0.29786 -0.21397,-0.0847 -0.3838,-0.0687 -0.5095,0.048 -0.0133,0.0123 -0.0818,0.13744 -0.20567,0.37547 -0.23502,0.47655 -1.23044,2.66803 -2.98626,6.57445 0.55091,-0.21564 1.17955,-0.46029 1.88593,-0.73395 0.70636,-0.27367 1.23767,-0.47726 1.59393,-0.61079 0.36286,-0.13966 0.72597,-0.2857 1.08932,-0.43812 0.36948,-0.1458 0.63218,-0.25409 0.78812,-0.32488 0.16867,-0.0703 0.26955,-0.12081 0.30265,-0.1515 0.0794,-0.0737 0.19214,-0.2706 0.33827,-0.59082 0.14611,-0.32022 0.24994,-0.61968 0.31149,-0.89836 0.0918,-0.40528 -0.0525,-0.81303 -0.43309,-1.22325 -0.0227,-0.0775 0.0421,-0.18682 0.1943,-0.328 0.15217,-0.14117 0.27928,-0.20985 0.38133,-0.20602 0.14682,0.17155 0.3725,0.45462 0.67703,0.84922 0.31112,0.38846 0.61093,0.73817 0.89944,1.04914 0.0491,0.0529 0.72054,0.71036 2.01435,1.97227 -0.0416,0.0879 -0.1319,0.19622 -0.27083,0.32512 -0.13897,0.1289 -0.2467,0.19192 -0.32321,0.18905 -0.61384,-0.66165 -1.13247,-0.79605 -1.55591,-0.40321 -0.0265,0.0246 -0.0839,0.10862 -0.17231,0.25219 -0.0686,0.12515 -0.16124,0.2973 -0.27801,0.51644 -0.1168,0.21914 -0.26858,0.51999 -0.45534,0.90255 -0.18017,0.37642 -0.36719,0.76535 -0.56104,1.16681 -0.18727,0.39531 -0.44711,0.93798 -0.77951,1.62801 -0.33243,0.69002 -0.65421,1.3517 -0.96533,1.98505 3.36928,-1.29141 5.38846,-2.08741 6.05754,-2.38802 0.27922,-0.12364 0.47178,-0.23457 0.57766,-0.33277 0.13231,-0.12277 0.20772,-0.26044 0.22624,-0.41301 0.0312,-0.15211 -0.007,-0.32597 -0.11456,-0.52159 -0.0949,-0.19515 -0.17252,-0.33856 -0.23293,-0.43023 -0.0604,-0.0917 -0.16997,-0.23628 -0.32859,-0.43382 -0.004,-0.0704 0.0641,-0.17641 0.20352,-0.31806 0.15216,-0.14119 0.2762,-0.21317 0.37211,-0.21596 0.16524,0.1914 0.38171,0.46455 0.64941,0.81945 0.28043,0.35537 0.56489,0.68855 0.85341,0.99952 0.20867,0.22496 0.39613,0.42038 0.56236,0.58628 0.17894,0.16636 0.37963,0.34951 0.60205,0.54944 0.22853,0.20654 0.43818,0.40599 0.62897,0.59836 -10e-4,0.0383 -0.0879,0.1308 -0.25948,0.27765 -0.15882,0.14731 -0.28262,0.21291 -0.3714,0.19682 -0.17189,-0.18527 -0.45831,-0.38121 -0.85926,-0.58783 -0.39486,-0.20002 -0.76402,-0.23302 -1.1075,-0.099 -4.02466,1.56698 -7.29,2.81119 -9.79604,3.73264 -0.10396,0.0472 -0.23836,0.0549 -0.4032,0.0232 -0.15873,-0.0251 -0.26571,-0.0675 -0.32094,-0.12699 -0.12277,-0.13234 -0.16996,-0.23629 -0.14158,-0.31185 l 3.69247,-7.52507 -7.4275,2.90183 c -0.0586,0.0297 -0.18969,0.0344 -0.39328,0.014 -0.21022,-0.0143 -0.35829,-0.0677 -0.44422,-0.16035 -0.0859,-0.0926 -0.11472,-0.17673 -0.0863,-0.2523 1.7406,-3.6707 3.30017,-7.1119 4.67872,-10.3236 0.17449,-0.39578 -0.0114,-0.88811 -0.5577,-1.47698 0.035,-0.0817 0.11865,-0.18394 0.25099,-0.30671 0.13232,-0.12276 0.24054,-0.19853 0.32465,-0.22731 0.17751,0.20464 0.36684,0.43526 0.56797,0.69186 0.20112,0.25661 0.38714,0.4903 0.55806,0.70106 0.17752,0.20464 0.37677,0.42605 0.59775,0.66424"
         id="path3103"
         style="font-style:normal;font-variant:normal;font-weight:normal;font-stretch:normal;letter-spacing:1.39999998px;fill:#ffffff;font-family:Amiri;-inkscape-font-specification:Amiri" />
      <path
         d="m -396.0597,579.27563 c 0.23944,0.19191 0.46762,0.369 0.68455,0.53128 0.2296,0.16089 0.48668,0.338 0.77124,0.53135 0.29158,0.199 0.5388,0.37399 0.74165,0.52498 -0.0297,0.0803 -0.11295,0.19865 -0.2498,0.35498 -0.12982,0.16198 -0.22432,0.2366 -0.2835,0.22386 -0.10565,-0.0847 -0.23102,-0.17356 -0.37611,-0.26672 -0.1451,-0.0931 -0.33603,-0.1652 -0.57277,-0.21616 -0.22408,-0.0523 -0.38973,-0.0116 -0.49696,0.12219 -0.0113,0.0141 -0.0607,0.14795 -0.14835,0.40158 -0.16254,0.50588 -0.82562,2.8197 -1.98924,6.94148 0.51331,-0.29414 1.09925,-0.62838 1.75783,-1.00274 0.65855,-0.37435 1.15424,-0.6537 1.48705,-0.83805 0.33844,-0.1914 0.67619,-0.38914 1.01325,-0.59322 0.34408,-0.19844 0.58805,-0.34411 0.73191,-0.43702 0.15653,-0.0943 0.24891,-0.15905 0.27714,-0.19426 0.0677,-0.0845 0.15036,-0.29587 0.24792,-0.63406 0.0975,-0.3382 0.15631,-0.64965 0.1763,-0.93435 0.0314,-0.41436 -0.17127,-0.79652 -0.6079,-1.14646 -0.0338,-0.0733 0.0143,-0.19097 0.14408,-0.35295 0.1298,-0.16198 0.24545,-0.24856 0.34696,-0.25975 0.17041,0.14815 0.43518,0.39504 0.79431,0.74068 0.36476,0.3386 0.71264,0.64054 1.04365,0.90581 0.0563,0.0452 0.81698,0.59694 2.28195,1.65535 -0.0283,0.093 -0.10169,0.21345 -0.2202,0.36134 -0.11854,0.1479 -0.21586,0.22604 -0.29197,0.23443 -0.70427,-0.56442 -1.23701,-0.62126 -1.59823,-0.17054 -0.0226,0.0282 -0.0671,0.11975 -0.13343,0.27474 -0.0495,0.13386 -0.11588,0.31774 -0.19923,0.55164 -0.0834,0.23391 -0.18937,0.55377 -0.31797,0.9596 -0.12299,0.39878 -0.25091,0.81095 -0.38377,1.2365 -0.12723,0.41851 -0.30463,0.99343 -0.53218,1.72477 -0.22758,0.73133 -0.44878,1.43307 -0.6636,2.10522 3.14331,-1.77182 5.02383,-2.8555 5.64156,-3.25102 0.25806,-0.16328 0.43226,-0.30126 0.52258,-0.41394 0.11287,-0.14085 0.16726,-0.2881 0.16318,-0.44174 0.009,-0.15504 -0.0547,-0.32141 -0.18984,-0.49913 -0.12249,-0.17911 -0.22034,-0.30958 -0.29354,-0.39139 -0.0732,-0.0818 -0.20281,-0.20879 -0.38869,-0.38091 -0.014,-0.0691 0.0375,-0.1839 0.15464,-0.34449 0.1298,-0.16197 0.24193,-0.25138 0.3364,-0.26821 0.19153,0.16508 0.44574,0.40351 0.76262,0.71528 0.32954,0.31038 0.65981,0.59821 0.99083,0.86349 0.23943,0.1919 0.45353,0.3577 0.6423,0.49741 0.20142,0.1383 0.42681,0.29002 0.67617,0.45515 0.25635,0.17078 0.49301,0.3373 0.70995,0.49959 0.004,0.0381 -0.0678,0.1423 -0.21593,0.31272 -0.13548,0.16902 -0.24831,0.25208 -0.3385,0.24919 -0.19721,-0.15804 -0.50928,-0.30984 -0.93621,-0.45539 -0.41993,-0.13991 -0.78995,-0.11838 -1.11004,0.0646 -3.75117,2.14057 -6.7986,3.85045 -9.1423,5.12965 -0.0959,0.0619 -0.22773,0.0893 -0.39544,0.0821 -0.16069,-0.002 -0.27272,-0.0277 -0.3361,-0.0785 -0.14086,-0.11289 -0.20279,-0.20879 -0.1858,-0.2877 l 2.54832,-7.98543 -6.92131,3.96029 c -0.0536,0.038 -0.18259,0.0619 -0.38697,0.0716 -0.21004,0.0167 -0.36435,-0.0144 -0.46294,-0.0934 -0.0986,-0.079 -0.13941,-0.15799 -0.12242,-0.23691 1.18315,-3.88637 2.2209,-7.51916 3.11325,-10.89838 0.11453,-0.4171 -0.1416,-0.87682 -0.76838,-1.37916 0.0226,-0.086 0.0904,-0.19936 0.20327,-0.34022 0.11287,-0.14084 0.2088,-0.23167 0.28777,-0.27249 0.20563,0.17638 0.42675,0.37672 0.66336,0.60103 0.23659,0.22433 0.45488,0.42819 0.65488,0.61159 0.20562,0.17638 0.43521,0.36616 0.68875,0.56934"
         id="path3105"
         style="font-style:normal;font-variant:normal;font-weight:normal;font-stretch:normal;letter-spacing:1.39999998px;fill:#ffffff;font-family:Amiri;-inkscape-font-specification:Amiri" />
      <path
         d="m -380.75648,591.01323 c 0.26468,0.15527 0.51608,0.2975 0.75419,0.4267 0.25046,0.12599 0.53045,0.26407 0.83998,0.41423 0.31729,0.15474 0.58722,0.29214 0.80977,0.41221 -0.0178,0.0838 -0.083,0.21289 -0.19583,0.38737 -0.10504,0.17905 -0.18776,0.26656 -0.24815,0.26251 -0.11679,-0.0685 -0.25369,-0.13833 -0.41073,-0.20953 -0.15705,-0.0712 -0.35639,-0.11487 -0.59801,-0.13105 -0.22929,-0.0194 -0.38731,0.0449 -0.47406,0.19277 -0.009,0.0156 -0.0387,0.15518 -0.0887,0.41882 -0.0877,0.52406 -0.40916,2.90945 -0.96447,7.15618 0.46538,-0.36528 0.99682,-0.78075 1.59433,-1.24641 0.5975,-0.46565 1.04757,-0.81375 1.35023,-1.0443 0.3072,-0.23833 0.6128,-0.48283 0.9168,-0.73352 0.31177,-0.24611 0.53211,-0.42553 0.66102,-0.53826 0.14125,-0.11594 0.22329,-0.19338 0.24613,-0.23231 0.0548,-0.0934 0.10599,-0.31449 0.15362,-0.66324 0.0476,-0.34875 0.0607,-0.66542 0.0393,-0.95002 -0.0289,-0.41455 -0.28467,-0.76338 -0.76731,-1.0465 -0.044,-0.0677 -0.0135,-0.19102 0.0915,-0.37008 0.10501,-0.17904 0.20693,-0.28144 0.30575,-0.30719 0.19004,0.12195 0.48773,0.32795 0.89308,0.61802 0.40988,0.2823 0.79777,0.53075 1.16367,0.74536 0.0623,0.0365 0.89472,0.47252 2.49735,1.30794 -0.0145,0.0961 -0.0697,0.22591 -0.16562,0.38939 -0.0959,0.16348 -0.18091,0.25488 -0.255,0.27418 -0.7785,-0.45663 -1.31386,-0.43583 -1.60609,0.0624 -0.0183,0.0311 -0.049,0.12819 -0.0923,0.29115 -0.0296,0.1396 -0.0687,0.33116 -0.11735,0.57465 -0.0487,0.24351 -0.10729,0.57534 -0.17586,0.9955 -0.064,0.41237 -0.13099,0.83871 -0.20091,1.279 -0.0654,0.43251 -0.15776,1.02704 -0.27716,1.7836 -0.11942,0.75655 -0.23682,1.4829 -0.35217,2.17906 2.85403,-2.20778 4.55807,-3.55201 5.1121,-4.03272 0.23174,-0.19888 0.38415,-0.3606 0.45723,-0.48516 0.0913,-0.15569 0.12383,-0.30926 0.0976,-0.46069 -0.0139,-0.15465 -0.10061,-0.31012 -0.26003,-0.46643 -0.14711,-0.15952 -0.26279,-0.27446 -0.34706,-0.34483 -0.0843,-0.0704 -0.23086,-0.17726 -0.43969,-0.32069 -0.0239,-0.0663 0.0105,-0.18739 0.1032,-0.36323 0.10501,-0.17904 0.20303,-0.28373 0.29408,-0.31404 0.21339,0.13564 0.4994,0.3348 0.85804,0.59747 0.37096,0.25946 0.73939,0.4965 1.10529,0.71112 0.26467,0.15526 0.50049,0.28835 0.70748,0.39929 0.2193,0.10773 0.46426,0.22526 0.73488,0.35259 0.27836,0.1319 0.53661,0.26246 0.77474,0.39166 0.01,0.0371 -0.0465,0.15061 -0.16843,0.34066 -0.10962,0.18684 -0.20925,0.28534 -0.29891,0.29552 -0.21799,-0.12786 -0.54873,-0.23292 -0.99223,-0.3152 -0.43575,-0.0777 -0.79876,-0.003 -1.08903,0.22442 -3.40217,2.66055 -6.17029,4.79317 -8.30436,6.39786 -0.0859,0.0751 -0.21241,0.12129 -0.3794,0.13843 -0.15923,0.0217 -0.27387,0.012 -0.34392,-0.0291 -0.15571,-0.0913 -0.23086,-0.17727 -0.22546,-0.2578 l 1.3667,-8.27002 -6.27582,4.9196 c -0.0475,0.0454 -0.17173,0.0876 -0.37256,0.12676 -0.20541,0.0469 -0.3626,0.0384 -0.47158,-0.0255 -0.109,-0.0639 -0.16079,-0.13617 -0.1554,-0.21671 0.60868,-4.01663 1.11015,-7.7613 1.50444,-11.23404 0.053,-0.42929 -0.26692,-0.84714 -0.95976,-1.25355 0.01,-0.0883 0.0606,-0.21033 0.15193,-0.36604 0.0913,-0.15568 0.1731,-0.25943 0.24535,-0.31124 0.22897,0.14479 0.47673,0.31105 0.74329,0.49878 0.26655,0.18775 0.51203,0.3579 0.73645,0.51046 0.22897,0.14478 0.48358,0.29936 0.76384,0.46374"
         id="path3107"
         style="font-style:normal;font-variant:normal;font-weight:normal;font-stretch:normal;letter-spacing:1.39999998px;fill:#ffffff;font-family:Amiri;-inkscape-font-specification:Amiri" />
      <path
         d="m -369.83063,609.95872 c -0.14088,-0.40375 -0.12578,-0.78981 0.0453,-1.15816 0.17106,-0.36835 0.45058,-0.61668 0.83855,-0.74499 0.39995,-0.13269 0.7841,-0.1135 1.15246,0.0576 0.36835,0.17106 0.61858,0.44649 0.75069,0.82627 0.14409,0.3754 0.13061,0.74727 -0.0404,1.11562 -0.17107,0.36835 -0.45219,0.63086 -0.84338,0.78753 -0.3792,0.15228 -0.75297,0.14289 -1.12132,-0.0282 -0.36836,-0.17107 -0.62897,-0.45628 -0.78183,-0.85566"
         id="path3109"
         style="font-style:normal;font-variant:normal;font-weight:normal;font-stretch:normal;letter-spacing:1.39999998px;fill:#ffffff;font-family:Amiri;-inkscape-font-specification:Amiri" />
      <path
         d="m -351.38544,597.44051 c 0.36101,0.14238 0.58948,0.25188 0.6854,0.3285 0.10428,0.08 0.23069,0.22682 0.37924,0.4406 0.0356,0.082 0.0488,0.20843 0.0396,0.37941 0.002,0.16592 -0.0195,0.30765 -0.0658,0.42518 -0.0828,0.20991 -0.19176,0.37553 -0.3269,0.49684 -0.12347,0.11626 -0.25721,0.18479 -0.40123,0.20559 -0.14073,0.0124 -0.26644,0.0114 -0.37711,-0.003 -0.099,-0.0196 -0.19885,-0.0493 -0.29959,-0.089 -0.15114,-0.0596 -0.3582,-0.24796 -0.62119,-0.56513 -0.21748,-0.26037 -0.43116,-0.43195 -0.64105,-0.51474 -0.41141,-0.16223 -0.83002,-0.0848 -1.25584,0.23238 -0.42252,0.30877 -0.77692,0.83843 -1.06319,1.58897 l -1.23168,3.12329 2.97217,1.17209 c 0.0839,0.0331 0.0895,0.14203 0.0167,0.32673 -0.10596,0.26868 -0.32283,0.4742 -0.65062,0.61657 l -2.74547,-1.08269 -2.60244,6.59922 c -0.38408,0.97393 -0.58711,1.61179 -0.60909,1.91357 -0.0128,0.13079 0.17583,0.31674 0.56584,0.55785 0.38999,0.24111 0.71093,0.41133 0.96281,0.51066 0.0239,0.087 10e-4,0.21871 -0.0685,0.39503 -0.0611,0.17962 -0.13434,0.29143 -0.21959,0.33542 -1.68807,-0.76271 -2.60346,-1.17221 -2.74619,-1.2285 -0.29386,-0.11588 -0.58263,-0.22006 -0.86632,-0.31253 -0.27198,-0.0976 -0.58925,-0.20327 -0.95182,-0.31714 -0.36256,-0.11387 -0.66304,-0.21297 -0.90144,-0.29728 -0.0323,-0.0903 -0.0137,-0.22367 0.0559,-0.39999 0.0779,-0.173 0.15532,-0.28315 0.23219,-0.33046 0.24348,0.096 0.57323,0.1824 0.98924,0.25914 0.42441,0.0801 0.67658,0.0679 0.75652,-0.0364 0.18991,-0.23556 0.4769,-0.8403 0.86098,-1.81423 l 2.60243,-6.59922 -1.4609,-0.57612 c -0.084,-0.0331 -0.0961,-0.12521 -0.0365,-0.27635 0.0165,-0.042 0.15857,-0.13149 0.42606,-0.26856 0.27079,-0.14544 0.45302,-0.23851 0.54668,-0.2792 l 0.93195,0.36752 0.18873,-0.47857 c 0.34102,-0.86477 0.83076,-1.65151 1.4692,-2.36021 0.64174,-0.71708 1.29602,-1.26914 1.96286,-1.6562 0.6752,-0.38373 1.32837,-0.65004 1.95949,-0.79894 0.63949,-0.14556 1.15235,-0.14219 1.53858,0.0101"
         id="path3111"
         style="font-style:normal;font-variant:normal;font-weight:normal;font-stretch:normal;letter-spacing:1.39999998px;fill:#ffffff;font-family:Amiri;-inkscape-font-specification:Amiri" />
      <path
         d="m -344.51836,610.32707 c 0.19952,-0.67509 0.26842,-1.16293 0.2067,-1.46352 -0.0881,-0.40248 -0.52162,-0.71883 -1.30057,-0.94908 -0.0305,-0.0561 -0.0258,-0.16759 0.0142,-0.3346 0.0512,-0.1731 0.11293,-0.28659 0.18534,-0.34049 1.43477,0.36761 2.67168,0.54498 3.71073,0.53209 0.0606,0.0179 0.0956,0.12237 0.10501,0.31337 0.0206,0.18492 0.0194,0.31633 -0.004,0.39422 -0.19282,0.20653 -0.41968,0.7512 -0.6806,1.63402 l -0.35302,1.1944 -1.25861,4.2583 c -0.22257,0.75299 -0.3564,1.42869 -0.4015,2.02708 -0.007,0.12019 0.061,0.23921 0.20503,0.35706 0.14397,0.11784 0.29435,0.21405 0.45114,0.28862 0.16797,0.0685 0.32858,0.13006 0.48182,0.18476 0.16188,0.0573 0.24715,0.0872 0.25582,0.0897 0.0442,0.0413 0.0421,0.14419 -0.007,0.30864 -0.0154,0.0519 -0.0613,0.12776 -0.13782,0.22749 -0.0765,0.0997 -0.14078,0.14191 -0.1927,0.12656 -0.25612,-0.0569 -0.5563,-0.10796 -0.90053,-0.15323 -0.3356,-0.0427 -0.65643,-0.0717 -0.96251,-0.0868 -0.29744,-0.0126 -0.57755,-0.0201 -0.84035,-0.0225 -0.26282,-0.002 -0.47851,-0.005 -0.64708,-0.008 l -0.2399,-3.2e-4 c -0.0606,-0.0179 -0.0997,-0.0765 -0.11742,-0.17587 -0.009,-0.0968 0.002,-0.19711 0.0325,-0.30097 l 0.35303,-1.1944 -0.0136,-0.14518 c -0.52349,0.30643 -1.19814,0.53523 -2.02395,0.68642 -0.82326,0.14253 -1.54647,0.1217 -2.16963,-0.0625 -0.52797,-0.15605 -0.95776,-0.40543 -1.28938,-0.74813 -0.33162,-0.34271 -0.56439,-0.71737 -0.69831,-1.12399 -0.12527,-0.40406 -0.18984,-0.87018 -0.19372,-1.39835 0.005,-0.52561 0.0439,-1.00814 0.1173,-1.4476 0.0846,-0.44554 0.19985,-0.91498 0.34566,-1.40832 l 0.98233,-3.32356 c 0.19953,-0.67508 0.26843,-1.16292 0.2067,-1.46352 -0.0881,-0.40247 -0.52161,-0.71883 -1.30057,-0.94907 -0.0305,-0.0561 -0.0258,-0.16759 0.0142,-0.33461 0.0512,-0.17309 0.11294,-0.28658 0.18534,-0.34049 1.43478,0.36762 2.67169,0.54498 3.71073,0.5321 0.0606,0.0179 0.1007,0.10506 0.12036,0.26144 0.0309,0.1503 0.0348,0.26439 0.0118,0.34228 -0.19281,0.20654 -0.4299,0.78583 -0.71129,1.73788 l -0.33,1.11651 -0.79815,2.70039 c -0.40931,1.38481 -0.50217,2.46318 -0.27858,3.2351 0.22358,0.77192 0.78544,1.29091 1.68557,1.55696 0.56257,0.16627 1.14956,0.17037 1.76097,0.0123 0.61395,-0.16675 0.96392,-0.41152 1.04993,-0.73431 l 1.65768,-5.6085"
         id="path3113"
         style="font-style:normal;font-variant:normal;font-weight:normal;font-stretch:normal;letter-spacing:1.39999998px;fill:#ffffff;font-family:Amiri;-inkscape-font-specification:Amiri" />
      <path
         d="m -330.92746,610.12499 c 0.34544,0.0675 0.65404,0.20598 0.92578,0.4154 0.28059,0.21117 0.46212,0.43516 0.5446,0.67197 0.0293,0.22644 0.018,0.47252 -0.0339,0.73824 -0.0848,0.43404 -0.25332,0.75515 -0.5055,0.96335 -0.25047,0.19936 -0.46428,0.28172 -0.64142,0.2471 -0.11516,-0.0225 -0.22156,-0.0663 -0.31919,-0.13134 -0.0871,-0.0722 -0.19991,-0.17699 -0.33857,-0.31445 -0.12809,-0.14457 -0.20369,-0.22831 -0.22679,-0.25122 -0.27735,-0.27489 -0.58431,-0.44522 -0.92089,-0.511 -0.51376,-0.10038 -1.05622,0.11087 -1.62738,0.63377 -0.56945,0.51406 -0.89138,0.96153 -0.9658,1.3424 l -0.79965,4.09226 c -0.20079,1.02749 -0.28458,1.69161 -0.25139,1.99237 0.0112,0.13093 0.30131,0.29337 0.87035,0.48733 0.57788,0.19568 1.02183,0.32382 1.33186,0.3844 0.0393,0.0812 0.0408,0.21487 0.004,0.40089 -0.0275,0.18774 -0.0792,0.31098 -0.15501,0.36973 -1.79853,-0.4434 -2.88823,-0.70232 -3.26911,-0.77674 -0.1683,-0.0329 -1.16901,-0.18246 -3.00215,-0.4487 -0.0481,-0.083 -0.0541,-0.21748 -0.0177,-0.40349 0.0452,-0.18428 0.1013,-0.30666 0.1683,-0.36713 0.25687,0.0502 0.59682,0.0752 1.01986,0.0751 0.43188,0.002 0.67766,-0.0561 0.73732,-0.17318 0.11413,-0.2076 0.28651,-0.85441 0.51712,-1.94045 l 0.96581,-4.94259 c 0.13847,-0.70861 0.18418,-1.17787 0.13715,-1.40777 -0.0272,-0.14324 -0.17471,-0.28242 -0.44258,-0.41753 -0.26787,-0.1351 -0.49837,-0.22612 -0.69151,-0.27307 -0.18255,-0.0541 -0.34912,-0.0958 -0.4997,-0.12523 -0.0285,-0.0423 -0.0299,-0.15296 -0.004,-0.33186 0.0346,-0.17714 0.081,-0.29682 0.13913,-0.35904 1.55447,0.0923 2.89382,-0.0322 4.01804,-0.37354 0.062,0.0121 0.11362,0.0774 0.15486,0.19579 0.0501,0.12015 0.0682,0.21565 0.0544,0.2865 -0.0385,0.10284 -0.15267,0.49894 -0.34255,1.18831 -0.18816,0.68052 -0.29522,1.08721 -0.32117,1.22007 -0.007,0.0354 -0.003,0.0637 0.011,0.0849 0.016,0.0123 0.0284,0.0194 0.0373,0.0211 0.0194,-0.005 0.0353,-0.0161 0.0476,-0.0321 0.42924,-0.59662 1.01446,-1.14437 1.75567,-1.64326 0.74119,-0.49886 1.38638,-0.69465 1.93556,-0.58735"
         id="path3115"
         style="font-style:normal;font-variant:normal;font-weight:normal;font-stretch:normal;letter-spacing:1.39999998px;fill:#ffffff;font-family:Amiri;-inkscape-font-specification:Amiri" />
      <path
         d="m -321.90033,612.26078 c -0.60165,-0.0606 -1.16076,0.0417 -1.67734,0.30715 -0.50671,0.25734 -0.91874,0.61039 -1.2361,1.05915 -0.31737,0.44878 -0.57278,0.91287 -0.76624,1.39226 -0.19346,0.47941 -0.31237,0.93911 -0.35672,1.37911 -0.1557,1.54452 0.0867,2.78446 0.72715,3.71983 0.64944,0.93628 1.55335,1.4628 2.71174,1.57957 0.51183,0.0516 1.00941,-0.0253 1.49273,-0.23051 0.49228,-0.20437 0.74929,-0.4143 0.77102,-0.62982 l 0.64901,-6.43846 c 0.0552,-0.54775 -0.15994,-1.02298 -0.64546,-1.4257 -0.47564,-0.41078 -1.03224,-0.6483 -1.66979,-0.71258 m 0.90593,-0.88834 c 0.26041,0.0263 0.76991,0.191 1.52853,0.49424 0.76757,0.30416 1.30402,0.47162 1.60934,0.50238 0.19755,0.0199 0.37986,0.0111 0.54693,-0.0265 0.0718,0.007 0.14001,0.0958 0.20455,0.26553 0.0654,0.16081 0.094,0.28162 0.0859,0.36243 -0.2635,0.45421 -0.43824,1.10785 -0.52422,1.96091 l -1.16225,11.52996 c -0.10501,1.04164 -0.12709,1.71066 -0.0662,2.00707 0.0232,0.12933 0.23732,0.25523 0.64225,0.37769 0.41389,0.12335 0.75104,0.19816 1.01147,0.22442 0.0466,0.0773 0.0604,0.21018 0.0414,0.39876 -0.01,0.18947 -0.0501,0.31696 -0.12019,0.38247 -1.8318,-0.27536 -2.78811,-0.41712 -2.86891,-0.42526 -0.3143,-0.0317 -0.62007,-0.058 -0.91729,-0.0789 -0.28917,-0.011 -0.62369,-0.0221 -1.00354,-0.0331 -0.37987,-0.0111 -0.69597,-0.0248 -0.9483,-0.0412 -0.0556,-0.0782 -0.0739,-0.21155 -0.0549,-0.40012 0.028,-0.18767 0.0725,-0.31471 0.13366,-0.38111 0.2604,0.0262 0.60122,0.0198 1.02244,-0.0194 0.43018,-0.0383 0.66957,-0.11846 0.71817,-0.24055 0.11876,-0.2783 0.23064,-0.93828 0.33565,-1.97992 l 0.4019,-3.98699 c 0.009,-0.0898 -10e-4,-0.16794 -0.0308,-0.23442 -0.0197,-0.0746 -0.0632,-0.0926 -0.13062,-0.054 -0.34236,0.24669 -0.89173,0.5224 -1.64812,0.82713 -0.74652,0.29666 -1.3712,0.41965 -1.87406,0.36896 -0.59267,-0.0598 -1.14258,-0.22857 -1.64975,-0.50646 -0.50628,-0.28688 -0.92448,-0.63745 -1.25463,-1.05171 -0.32925,-0.42324 -0.60862,-0.89134 -0.83811,-1.40431 -0.22051,-0.51206 -0.37232,-1.0308 -0.45542,-1.55622 -0.0741,-0.52451 -0.0867,-1.02922 -0.0379,-1.51413 0.0715,-0.7094 0.2759,-1.38726 0.61318,-2.03359 0.34717,-0.65439 0.77553,-1.21442 1.28509,-1.68011 0.51854,-0.46477 1.08058,-0.86619 1.68614,-1.20429 0.61452,-0.33716 1.242,-0.57779 1.88242,-0.72187 0.64939,-0.14316 1.26144,-0.18578 1.83615,-0.12786"
         id="path3117"
         style="font-style:normal;font-variant:normal;font-weight:normal;font-stretch:normal;letter-spacing:1.39999998px;fill:#ffffff;font-family:Amiri;-inkscape-font-specification:Amiri" />
      <path
         d="m -309.99642,622.54453 c 0.44223,10e-4 0.94351,-0.14191 1.50383,-0.42925 0.56937,-0.29633 0.85426,-0.52121 0.85467,-0.67464 l 0.01,-3.68228 c -1.40001,0.41148 -2.24004,0.671 -2.5201,0.77856 -0.51496,0.19721 -0.92183,0.47592 -1.22061,0.83613 -0.28974,0.35123 -0.43526,0.77503 -0.43656,1.27142 -0.001,0.50541 0.17349,0.94811 0.52448,1.32809 0.35098,0.37999 0.77917,0.57064 1.28459,0.57197 m 1.4899,-10.55562 c 0.78518,0.002 1.47015,0.3649 2.05489,1.08845 0.59375,0.72359 0.88928,1.59982 0.88657,2.62868 l -0.0147,5.57757 c -0.002,0.84837 0.27642,1.27329 0.83599,1.27476 0.0812,2.2e-4 0.15794,-0.004 0.23018,-0.0129 0.0813,-0.0178 0.149,-0.0357 0.20321,-0.0536 0.0542,-0.0269 0.10843,-0.0539 0.16267,-0.0808 0.0633,-0.0359 0.10845,-0.0629 0.13559,-0.0809 0.0362,-0.027 0.0678,-0.054 0.095,-0.081 0.0362,-0.027 0.0588,-0.0405 0.0678,-0.0404 0.0722,2e-4 0.1081,0.0725 0.10773,0.21689 -5.1e-4,0.18954 -0.0461,0.36089 -0.13673,0.51408 -0.20809,0.18899 -0.53809,0.40924 -0.99001,0.66075 -0.44288,0.24252 -0.79067,0.36344 -1.04337,0.36278 -0.37907,-10e-4 -0.72606,-0.18242 -1.04098,-0.54426 -0.31492,-0.37087 -0.51691,-0.77753 -0.60599,-1.22001 -0.26243,0.26104 -0.78235,0.62971 -1.55977,1.106 -0.76839,0.46729 -1.36015,0.70039 -1.77531,0.69929 -0.89349,-0.002 -1.64631,-0.30217 -2.25845,-0.89945 -0.6031,-0.60628 -0.90349,-1.34714 -0.90119,-2.22259 10e-4,-0.51443 0.14245,-0.96983 0.42328,-1.36621 0.28987,-0.40536 0.60194,-0.67079 0.93621,-0.79626 0.29811,-0.10752 0.84012,-0.29562 1.62603,-0.56431 0.7859,-0.26868 1.44083,-0.4971 1.9648,-0.68526 0.53298,-0.18812 0.91694,-0.33602 1.15189,-0.44371 0.13551,-0.0538 0.22143,-0.12125 0.25775,-0.20239 0.0453,-0.0811 0.0683,-0.23898 0.0689,-0.47365 l 0.002,-0.73104 c 0.002,-0.64078 -0.2269,-1.23253 -0.68575,-1.77527 -0.44982,-0.55171 -0.99511,-0.82842 -1.6359,-0.83012 -0.45126,-0.001 -0.79007,0.13782 -1.01644,0.417 -0.21732,0.27019 -0.37636,0.68945 -0.47714,1.25777 -0.15571,0.86602 -0.58104,1.29811 -1.27597,1.29627 -0.27076,-7e-4 -0.49157,-0.11861 -0.66243,-0.35373 -0.17086,-0.2351 -0.25591,-0.49705 -0.25515,-0.78587 1.9e-4,-0.0722 0.0185,-0.18045 0.055,-0.32476 0.0455,-0.1533 0.0909,-0.26149 0.13623,-0.32455 0.56094,-0.52198 1.30233,-1.02093 2.22416,-1.49685 0.93085,-0.47587 1.834,-0.71266 2.70945,-0.71037"
         id="path3119"
         style="font-style:normal;font-variant:normal;font-weight:normal;font-stretch:normal;letter-spacing:1.39999998px;fill:#ffffff;font-family:Amiri;-inkscape-font-specification:Amiri" />
      <path
         d="m -297.0276,622.05574 c 0.44048,-0.0394 0.92653,-0.2278 1.45816,-0.56529 0.53981,-0.34727 0.80289,-0.59731 0.78923,-0.75014 l -0.32785,-3.66766 c -1.3564,0.53807 -2.1691,0.87349 -2.43813,1.00627 -0.49472,0.24357 -0.87433,0.5584 -1.13883,0.94449 -0.25633,0.3763 -0.36239,0.81166 -0.31819,1.30607 0.045,0.50341 0.25966,0.92822 0.644,1.27443 0.38433,0.34622 0.8282,0.49683 1.33161,0.45183 m 0.51611,-10.64775 c 0.78207,-0.0699 1.49741,0.2286 2.14601,0.89551 0.65758,0.66613 1.03217,1.51158 1.12379,2.53636 l 0.4966,5.55543 c 0.0755,0.84501 0.39196,1.2426 0.94931,1.19277 0.0809,-0.007 0.1569,-0.0186 0.22803,-0.034 0.0793,-0.0252 0.1451,-0.0492 0.19744,-0.072 0.0515,-0.0318 0.10304,-0.0636 0.15457,-0.0954 0.0597,-0.0416 0.10224,-0.0726 0.12761,-0.0929 0.0335,-0.0302 0.0626,-0.06 0.0872,-0.0894 0.0335,-0.0302 0.0548,-0.0457 0.0638,-0.0465 0.0719,-0.006 0.11429,0.0623 0.12716,0.2061 0.0169,0.18878 -0.0128,0.36359 -0.089,0.52445 -0.18989,0.20726 -0.49831,0.45683 -0.92527,0.74871 -0.4188,0.28208 -0.75404,0.43438 -1.00573,0.45688 -0.37756,0.0338 -0.73973,-0.1151 -1.08649,-0.44655 -0.34758,-0.34044 -0.586,-0.72688 -0.71526,-1.15933 -0.2374,0.284 -0.72134,0.69877 -1.45183,1.24431 -0.72232,0.53575 -1.29023,0.82211 -1.70374,0.85907 -0.88995,0.0795 -1.66708,-0.15 -2.33139,-0.68866 -0.65613,-0.54844 -1.02316,-1.25865 -1.10111,-2.13063 -0.0458,-0.51239 0.053,-0.97881 0.29627,-1.39925 0.2515,-0.43023 0.53792,-0.72314 0.85928,-0.87873 0.28701,-0.13439 0.80949,-0.37138 1.56747,-0.71097 0.75796,-0.33959 1.3892,-0.62708 1.89371,-0.86247 0.5135,-0.23618 0.88229,-0.41865 1.10637,-0.54742 0.13002,-0.066 0.20939,-0.14104 0.23812,-0.22517 0.0377,-0.0849 0.0461,-0.24423 0.0252,-0.47797 l -0.0651,-0.72814 c -0.0571,-0.63823 -0.33893,-1.20655 -0.84559,-1.70494 -0.49849,-0.50816 -1.06686,-0.73372 -1.7051,-0.67668 -0.44947,0.0402 -0.77412,0.20966 -0.97394,0.50841 -0.19164,0.28898 -0.31159,0.72104 -0.35985,1.2962 -0.0757,0.87665 -0.45961,1.34591 -1.15179,1.40778 -0.26968,0.0241 -0.50036,-0.0731 -0.69205,-0.29153 -0.1917,-0.21844 -0.3004,-0.4715 -0.32611,-0.75917 -0.006,-0.0719 0.002,-0.18139 0.025,-0.32844 0.0313,-0.15683 0.0666,-0.26872 0.10591,-0.33567 0.51073,-0.5712 1.20326,-1.136 2.07759,-1.69441 0.88332,-0.55919 1.76096,-0.87777 2.63293,-0.95572"
         id="path3121"
         style="font-style:normal;font-variant:normal;font-weight:normal;font-stretch:normal;letter-spacing:1.39999998px;fill:#ffffff;font-family:Amiri;-inkscape-font-specification:Amiri" />
      <path
         d="m -282.56518,609.27685 c 0.57611,-0.11059 1.07806,-0.12884 1.50585,-0.0548 0.42777,0.0741 0.79655,0.22388 1.10635,0.44928 0.30978,0.22543 0.58152,0.56384 0.81524,1.01522 0.24255,0.44971 0.44488,0.95307 0.60697,1.51011 0.16208,0.55705 0.3214,1.24329 0.47796,2.05871 l 0.56154,2.92491 c 0.19738,1.02815 0.36762,1.67553 0.51072,1.94214 0.0593,0.11728 0.30041,0.17667 0.72346,0.17816 0.43187,-2.1e-4 0.77634,-0.025 1.03339,-0.0743 0.0668,0.0607 0.11804,0.18411 0.15379,0.37024 0.0446,0.18443 0.0427,0.31805 -0.006,0.40087 -1.83401,0.2602 -2.7909,0.39796 -2.87066,0.41328 -0.31023,0.0596 -0.60988,0.12627 -0.89896,0.20015 -0.28193,0.0633 -0.60647,0.14401 -0.97362,0.24207 -0.36716,0.0981 -0.67398,0.17534 -0.92044,0.23185 -0.0757,-0.059 -0.13136,-0.18156 -0.16709,-0.36769 -0.0269,-0.18783 -0.0205,-0.3223 0.019,-0.40342 0.25703,-0.0494 0.58174,-0.15305 0.97415,-0.31109 0.40125,-0.15975 0.6077,-0.30507 0.61934,-0.43597 0.0342,-0.30064 -0.0474,-0.96503 -0.24481,-1.99318 l -0.5105,-2.65901 c -0.32162,-1.67517 -0.72283,-2.78365 -1.20363,-3.32547 -0.47366,-0.55236 -1.22012,-0.7307 -2.2394,-0.53502 -0.30136,0.0579 -0.63991,0.23315 -1.01564,0.52583 -0.36688,0.29101 -0.67001,0.57896 -0.90939,0.86385 -0.23053,0.2832 -0.33728,0.46912 -0.32026,0.55774 l 1.06693,5.55733 c 0.19739,1.02815 0.36763,1.67553 0.51072,1.94214 0.0593,0.11728 0.30042,0.17667 0.72346,0.17816 0.43188,-2.1e-4 0.77635,-0.025 1.03339,-0.0743 0.0668,0.0607 0.11805,0.18411 0.15379,0.37024 0.0446,0.18443 0.0427,0.31805 -0.006,0.40087 -1.83401,0.2602 -2.7909,0.39796 -2.87067,0.41328 -0.31022,0.0596 -0.60987,0.12628 -0.89895,0.20016 -0.28193,0.0633 -0.60647,0.144 -0.97363,0.24206 -0.36715,0.0981 -0.67397,0.17534 -0.92044,0.23185 -0.0757,-0.059 -0.13135,-0.18156 -0.16709,-0.36769 -0.0269,-0.18783 -0.0205,-0.3223 0.019,-0.40342 0.25703,-0.0494 0.58175,-0.15304 0.97415,-0.31109 0.40126,-0.15975 0.60771,-0.30507 0.61934,-0.43596 0.0342,-0.30064 -0.0474,-0.96504 -0.24481,-1.99319 l -0.9291,-4.83939 c -0.14975,-0.77997 -0.28935,-1.26781 -0.41883,-1.46352 -0.0787,-0.12273 -0.26753,-0.19676 -0.56647,-0.22209 -0.29894,-0.0253 -0.54676,-0.0237 -0.74345,0.005 -0.18954,0.018 -0.35964,0.0415 -0.51032,0.0704 -0.0423,-0.0286 -0.0848,-0.13075 -0.12773,-0.30632 -0.034,-0.17726 -0.0357,-0.3056 -0.005,-0.38503 1.4765,-0.49482 2.67249,-1.11042 3.58797,-1.84678 0.062,-0.0119 0.1343,0.0294 0.21676,0.1238 0.0913,0.0928 0.1438,0.17459 0.15741,0.24548 0.0366,0.76496 0.0804,1.28038 0.13145,1.54627 0.0136,0.0709 0.0381,0.10296 0.0736,0.0961 0.0177,-0.003 0.0409,-0.0262 0.0696,-0.0685 0.27965,-0.45804 0.74392,-0.9837 1.3928,-1.57698 0.64887,-0.59325 1.25693,-0.94434 1.82419,-1.05326"
         id="path3123"
         style="font-style:normal;font-variant:normal;font-weight:normal;font-stretch:normal;letter-spacing:1.39999998px;fill:#ffffff;font-family:Amiri;-inkscape-font-specification:Amiri" />
      <path
         d="m -274.65025,607.93064 c 0.29156,-0.0957 0.56456,-0.19001 0.819,-0.28302 0.26021,-0.10438 0.54902,-0.2229 0.86644,-0.35558 0.32599,-0.13546 0.60764,-0.24688 0.84493,-0.33427 0.0511,0.0688 0.10465,0.20314 0.1608,0.40317 0.0647,0.19725 0.0756,0.31717 0.0326,0.35977 -0.12863,0.0422 -0.2716,0.0986 -0.4289,0.16924 -0.1573,0.0706 -0.32197,0.19116 -0.49401,0.3616 -0.16628,0.15906 -0.22268,0.32005 -0.16921,0.48297 0.006,0.0172 0.0907,0.13172 0.25526,0.34368 0.33486,0.41255 1.91039,2.23221 4.72659,5.45899 0.0341,-0.59063 0.0744,-1.264 0.12071,-2.02011 0.0463,-0.75611 0.0832,-1.32389 0.11068,-1.70336 0.0246,-0.38803 0.0436,-0.77895 0.0568,-1.17275 0.0218,-0.39661 0.0331,-0.68053 0.0339,-0.85178 0.007,-0.18262 0.003,-0.29537 -0.0113,-0.33826 -0.0338,-0.10289 -0.16563,-0.28759 -0.39556,-0.5541 -0.22994,-0.26649 -0.45867,-0.48589 -0.68619,-0.6582 -0.3299,-0.25268 -0.76068,-0.29179 -1.29234,-0.11733 -0.0799,-0.0118 -0.15215,-0.11629 -0.21687,-0.31353 -0.0647,-0.19722 -0.074,-0.34139 -0.028,-0.43252 0.21719,-0.0618 0.56865,-0.1486 1.05436,-0.26052 0.48289,-0.12046 0.92586,-0.24683 1.3289,-0.37911 0.0686,-0.0225 0.94636,-0.35804 2.63328,-1.00663 0.0624,0.0745 0.1232,0.2018 0.18231,0.38186 0.0591,0.1801 0.0714,0.30431 0.0368,0.37263 -0.85753,0.28143 -1.19624,0.69654 -1.01613,1.24534 0.0113,0.0343 0.0636,0.12161 0.15718,0.26188 0.0851,0.11457 0.20279,0.27067 0.35315,0.46829 0.15033,0.19764 0.36031,0.46119 0.62992,0.79065 0.26677,0.32091 0.54207,0.65326 0.82588,0.99706 0.28098,0.33524 0.66555,0.79796 1.15371,1.38816 0.48814,0.59022 0.95498,1.15892 1.40053,1.70611 0.23367,-3.60072 0.35364,-5.76781 0.35992,-6.50129 0.004,-0.30535 -0.0161,-0.52663 -0.0611,-0.66385 -0.0563,-0.17149 -0.14989,-0.29751 -0.28079,-0.37805 -0.12516,-0.0919 -0.29909,-0.12981 -0.52176,-0.11373 -0.21695,0.005 -0.37968,0.0154 -0.4882,0.032 -0.10854,0.0166 -0.28567,0.0558 -0.5314,0.1174 -0.0655,-0.026 -0.13354,-0.1319 -0.20401,-0.31775 -0.0647,-0.19722 -0.0783,-0.33999 -0.0408,-0.4283 0.24291,-0.0702 0.5815,-0.15282 1.01577,-0.24786 0.44001,-0.10638 0.86154,-0.22572 1.26459,-0.358 0.29155,-0.0957 0.5474,-0.18437 0.76756,-0.26613 0.22589,-0.0931 0.47611,-0.19898 0.75066,-0.31759 0.28311,-0.12139 0.55189,-0.22859 0.80635,-0.32161 0.0342,0.0173 0.0821,0.13454 0.14391,0.35172 0.0675,0.20583 0.0754,0.34571 0.0237,0.41966 -0.24013,0.0788 -0.53778,0.25723 -0.89296,0.53526 -0.34664,0.27524 -0.5308,0.59689 -0.55247,0.96495 -0.25698,4.3113 -0.49013,7.79786 -0.69944,10.45972 -5.4e-4,0.11416 -0.0496,0.23951 -0.14731,0.37605 -0.0891,0.13373 -0.17225,0.21325 -0.24941,0.23858 -0.17152,0.0563 -0.28568,0.0558 -0.34248,-0.002 l -5.29541,-6.49766 -0.46518,7.96065 c 0.003,0.0657 -0.048,0.18672 -0.15153,0.36319 -0.10076,0.18505 -0.21117,0.29727 -0.33121,0.33666 -0.12006,0.0394 -0.2085,0.0304 -0.26531,-0.0269 -2.60837,-3.1145 -5.08382,-5.96867 -7.42633,-8.56251 -0.28675,-0.32383 -0.81173,-0.36052 -1.57493,-0.11008 -0.0596,-0.0659 -0.11758,-0.18462 -0.17387,-0.35614 -0.0563,-0.17149 -0.0799,-0.30146 -0.071,-0.3899 0.26008,-0.0758 0.54869,-0.15156 0.86584,-0.22715 0.31715,-0.0756 0.60717,-0.147 0.87006,-0.21429 0.26007,-0.0758 0.54446,-0.16441 0.85317,-0.26573"
         id="path3125"
         style="font-style:normal;font-variant:normal;font-weight:normal;font-stretch:normal;letter-spacing:1.39999998px;fill:#ffffff;font-family:Amiri;-inkscape-font-specification:Amiri" />
      <path
         d="m -254.62438,604.68907 c 0,10e-6 1.33338,-0.6215 4.00013,-1.86453 0.35175,-0.16395 0.45219,-0.43979 0.30134,-0.82753 -0.0681,-0.16741 -0.19613,-0.35666 -0.38413,-0.56776 -0.18802,-0.21108 -0.41665,-0.41319 -0.68591,-0.60634 -0.26926,-0.19312 -0.58489,-0.31485 -0.94691,-0.36519 -0.36201,-0.0503 -0.71889,0.007 -1.07064,0.17045 -0.38447,0.17922 -0.69046,0.44134 -0.91798,0.78636 -0.22752,0.34504 -0.36862,0.70456 -0.42331,1.07856 -0.0503,0.36202 -0.0701,0.71478 -0.0594,1.05827 0.0151,0.33152 0.0439,0.60687 0.0863,0.82607 0.0506,0.2154 0.0841,0.31928 0.10045,0.31164 m 0.30054,0.9652 c 0.66505,1.51224 1.5746,2.50225 2.72865,2.97003 1.15841,0.45579 2.31432,0.41487 3.46774,-0.12276 0.58897,-0.27453 1.05396,-0.66552 1.39496,-1.17299 0.34917,-0.51126 0.58192,-0.97324 0.69825,-1.38594 0.008,-0.004 0.0363,0.003 0.0842,0.0205 0.0442,0.009 0.0918,0.0369 0.14309,0.0827 0.0594,0.042 0.10245,0.0917 0.12915,0.14891 0.061,0.13089 0.0806,0.30101 0.0587,0.51036 -0.0318,0.2737 -0.0962,0.56265 -0.19341,0.86684 -0.0972,0.3042 -0.23965,0.63945 -0.42737,1.00576 -0.18773,0.36632 -0.45587,0.72033 -0.80442,1.06203 -0.34038,0.33789 -0.73553,0.61169 -1.18543,0.82141 -1.43155,0.66726 -2.83446,0.7337 -4.20875,0.19929 -1.36993,-0.54639 -2.39615,-1.55171 -3.07867,-3.01598 -0.36986,-0.79347 -0.57504,-1.62886 -0.61554,-2.50617 -0.0405,-0.87729 0.0542,-1.67819 0.28406,-2.40271 0.22987,-0.72451 0.56057,-1.37155 0.99211,-1.94114 0.42772,-0.57774 0.91153,-0.99244 1.45142,-1.24411 0.55626,-0.25927 1.09938,-0.40787 1.62936,-0.44582 0.52998,-0.0379 0.98496,0.009 1.36493,0.14047 0.37615,0.1234 0.72448,0.30458 1.04497,0.54352 0.32049,0.23897 0.57446,0.47408 0.76192,0.70533 0.18745,0.23128 0.33265,0.45734 0.43561,0.6782 0.17539,0.3763 0.26385,0.68358 0.26539,0.92183 0.006,0.22629 -0.0997,0.39499 -0.31674,0.50611 -0.32395,0.18088 -1.37022,0.71338 -3.13881,1.59749 -1.76422,0.87213 -2.75268,1.35776 -2.96536,1.45689"
         id="path3127"
         style="font-style:normal;font-variant:normal;font-weight:normal;font-stretch:normal;letter-spacing:1.39999998px;fill:#ffffff;font-family:Amiri;-inkscape-font-specification:Amiri" />
      <path
         d="m -237.36756,604.71719 c -0.3339,0.19781 -0.9775,0.42173 -1.93082,0.67178 -0.0434,0.0152 -0.13876,0.0403 -0.28599,0.075 -0.14725,0.0348 -0.25034,0.0644 -0.3093,0.0888 -0.0558,0.0121 -0.14264,0.0425 -0.26054,0.0914 -0.12252,0.0411 -0.21871,0.0824 -0.2886,0.12375 -0.0621,0.0368 -0.13517,0.0906 -0.21914,0.1613 -0.0886,0.063 -0.16638,0.13528 -0.23339,0.21694 -0.0544,0.0322 -0.15946,0.005 -0.31531,-0.0807 -0.15269,-0.0984 -0.24973,-0.18249 -0.29113,-0.25238 -0.0574,-0.52194 -0.30466,-1.15175 -0.74166,-1.88942 l -6.18243,-10.4361 c -0.36799,-0.62118 -0.64602,-1.00196 -0.83407,-1.14233 -0.28207,-0.21052 -0.83853,-0.0697 -1.66939,0.4225 -0.008,0.005 -0.0431,-0.0374 -0.10609,-0.12597 -0.0676,-0.0963 -0.13124,-0.19498 -0.19105,-0.29594 -0.052,-0.10553 -0.0648,-0.17138 -0.0384,-0.19756 1.00718,-0.7435 1.9258,-1.7073 2.75587,-2.8914 0.0544,-0.0322 0.13402,-0.0217 0.23897,0.0315 0.10812,0.0409 0.18748,0.104 0.23808,0.18939 0.12357,0.59818 0.43836,1.32433 0.94436,2.17846 l 2.71861,4.58909 c 0.0276,0.0466 0.0483,0.0815 0.0621,0.10482 0.0138,0.0233 0.0384,0.0559 0.0737,0.0979 0.0385,0.0296 0.0656,0.0399 0.0811,0.0306 0.0109,-0.017 0.0312,-0.0447 0.0608,-0.0833 0.18036,-0.42153 0.47591,-0.95852 0.88664,-1.61097 0.41074,-0.65242 0.80635,-1.09134 1.18683,-1.31675 0.66779,-0.39559 1.36474,-0.60916 2.09085,-0.6407 0.73387,-0.0361 1.41194,0.0814 2.0342,0.35269 0.63002,0.26667 1.20151,0.62046 1.71448,1.06136 0.51295,0.44092 0.93043,0.93315 1.25244,1.47668 0.4462,0.75322 0.72646,1.56276 0.8408,2.42863 0.11749,0.85352 0.0734,1.68214 -0.13233,2.48586 -0.21033,0.79596 -0.58686,1.55926 -1.12959,2.28989 -0.53958,0.71827 -1.21315,1.31661 -2.0207,1.795 m -4.9541,-9.21261 c -0.27954,0.16561 -0.56196,0.43258 -0.84728,0.8009 -0.28532,0.36834 -0.4533,0.65143 -0.50394,0.84926 -0.0316,0.12366 -0.0199,0.23207 0.0353,0.32524 l 3.35341,5.66066 c 0.2806,0.47366 0.74038,0.73627 1.37935,0.78783 0.63437,0.0438 1.22332,-0.0953 1.76688,-0.4173 0.54354,-0.322 0.94332,-0.81584 1.19936,-1.48153 0.25142,-0.67344 0.3398,-1.39192 0.26514,-2.15543 -0.0793,-0.77126 -0.3029,-1.46749 -0.67089,-2.08869 -0.79581,-1.34333 -1.72971,-2.21148 -2.80171,-2.60445 -1.06883,-0.40532 -2.12738,-0.29748 -3.17565,0.32351"
         id="path3129"
         style="font-style:normal;font-variant:normal;font-weight:normal;font-stretch:normal;letter-spacing:1.39999998px;fill:#ffffff;font-family:Amiri;-inkscape-font-specification:Amiri" />
      <path
         d="m -228.34842,598.5865 c -0.42004,-0.0802 -0.74666,-0.28654 -0.97988,-0.61905 -0.23321,-0.33249 -0.30823,-0.69878 -0.22506,-1.09887 0.0854,-0.41264 0.29432,-0.73558 0.62683,-0.9688 0.3325,-0.23321 0.69619,-0.31192 1.09109,-0.23614 0.3971,0.0632 0.71226,0.26108 0.94548,0.59358 0.23321,0.3325 0.3197,0.70728 0.25946,1.12434 -0.058,0.4045 -0.2533,0.72335 -0.5858,0.95656 -0.3325,0.23322 -0.70987,0.31601 -1.13212,0.24838"
         id="path3131"
         style="font-style:normal;font-variant:normal;font-weight:normal;font-stretch:normal;letter-spacing:1.39999998px;fill:#ffffff;font-family:Amiri;-inkscape-font-specification:Amiri" />
      <path
         d="m -225.77581,583.08314 c -0.5644,0.46463 -0.88561,1.03298 -0.96361,1.70504 -0.078,0.67209 0.0214,1.33253 0.29835,1.98131 0.28388,0.64307 0.68967,1.28512 1.21738,1.92617 0.57933,0.70378 1.24373,1.29076 1.99318,1.76097 0.74372,0.46324 1.52559,0.73142 2.34561,0.80453 0.82002,0.0731 1.52966,-0.13697 2.12891,-0.63027 0.56441,-0.46461 0.88561,-1.03296 0.96362,-1.70505 0.078,-0.67207 -0.0221,-1.32615 -0.3002,-1.96225 -0.27691,-0.64878 -0.67635,-1.29022 -1.19832,-1.92432 -0.5736,-0.69679 -1.23861,-1.27742 -1.99503,-1.74191 -0.7552,-0.47716 -1.5428,-0.75231 -2.36283,-0.82543 -0.82575,-0.0801 -1.53477,0.12367 -2.12706,0.61121 m -0.33791,-0.87912 c 1.35876,-1.1185 2.79504,-1.58191 4.30886,-1.39024 1.51504,0.179 2.82035,0.93394 3.91593,2.26481 1.11278,1.35181 1.61983,2.834 1.52115,4.44659 -0.0917,1.60687 -0.76818,2.92941 -2.02938,3.96762 -1.35877,1.11852 -2.80489,1.58418 -4.33838,1.397 -1.53225,-0.19989 -2.84617,-0.96528 -3.94174,-2.29617 -1.10704,-1.34482 -1.60549,-2.81656 -1.49534,-4.41524 0.10443,-1.60562 0.79072,-2.93041 2.0589,-3.97437"
         id="path3133"
         style="font-style:normal;font-variant:normal;font-weight:normal;font-stretch:normal;letter-spacing:1.39999998px;fill:#ffffff;font-family:Amiri;-inkscape-font-specification:Amiri" />
      <path
         d="m -214.73306,571.78857 c 0.24957,-0.24819 0.53725,-0.42609 0.86301,-0.5337 0.33217,-0.11394 0.61942,-0.13867 0.86175,-0.0742 0.20394,0.10268 0.40137,0.25001 0.5923,0.44197 0.31184,0.31358 0.48327,0.63315 0.51428,0.95869 0.0247,0.31917 -0.027,0.5424 -0.155,0.66967 -0.0832,0.0827 -0.1791,0.1463 -0.28771,0.19066 -0.10858,0.0316 -0.25865,0.0663 -0.45021,0.10406 -0.19152,0.025 -0.30324,0.0407 -0.33517,0.0469 -0.38312,0.0755 -0.69626,0.23422 -0.93944,0.47605 -0.37116,0.36913 -0.50036,0.93676 -0.3876,1.70288 0.1064,0.75974 0.29643,1.27719 0.57009,1.55235 l 2.94026,2.9565 c 0.73825,0.74233 1.24119,1.18406 1.50884,1.32519 0.1147,0.0641 0.41186,-0.085 0.8915,-0.44746 0.48603,-0.36881 0.84103,-0.66458 1.06502,-0.88733 0.0893,0.013 0.20078,0.0867 0.33443,0.22109 0.14005,0.12803 0.21313,0.23991 0.21925,0.33565 -1.37551,1.24067 -2.20085,1.99783 -2.47602,2.27149 -0.12159,0.12092 -0.80649,0.86571 -2.05472,2.23436 -0.0957,-0.007 -0.21038,-0.0772 -0.34403,-0.21155 -0.12725,-0.14075 -0.19713,-0.25581 -0.20965,-0.34519 0.18558,-0.18456 0.39692,-0.45202 0.63401,-0.80237 0.24349,-0.3567 0.33348,-0.59258 0.26998,-0.70763 -0.10791,-0.2109 -0.54686,-0.71627 -1.31686,-1.51612 l -3.55122,-3.57084 c -0.50913,-0.51194 -0.87207,-0.81288 -1.08881,-0.90283 -0.13385,-0.0578 -0.33181,-0.0137 -0.59387,0.13238 -0.26205,0.14607 -0.46665,0.28591 -0.61381,0.41951 -0.14711,0.12086 -0.27506,0.23538 -0.38386,0.34356 -0.051,-1.3e-4 -0.14341,-0.061 -0.2771,-0.18264 -0.12728,-0.12798 -0.20038,-0.23348 -0.2193,-0.31651 0.94791,-1.23545 1.59572,-2.4143 1.94343,-3.53656 0.0448,-0.0445 0.12778,-0.0507 0.24894,-0.0185 0.12757,0.0259 0.21681,0.0644 0.26772,0.11561 0.0636,0.0895 0.32755,0.40616 0.79192,0.94989 0.45801,0.53734 0.73475,0.854 0.83021,0.94998 0.0255,0.0256 0.051,0.0384 0.0765,0.0385 0.0192,-0.006 0.0319,-0.0127 0.0383,-0.019 0.006,-0.0191 0.006,-0.0383 1.6e-4,-0.0574 -0.25337,-0.68993 -0.37883,-1.48162 -0.37637,-2.37508 0.002,-0.89343 0.20207,-1.53744 0.59883,-1.93204"
         id="path3135"
         style="font-style:normal;font-variant:normal;font-weight:normal;font-stretch:normal;letter-spacing:1.39999998px;fill:#ffffff;font-family:Amiri;-inkscape-font-specification:Amiri" />
      <path
         d="m -208.60556,566.06581 c -0.46941,0.56042 -0.5976,1.21241 -0.38456,1.95597 0.21885,0.73666 0.64654,1.37157 1.28305,1.90474 0.67804,0.56795 1.43064,0.89226 2.25782,0.97293 0.83298,0.0738 1.50156,-0.19032 2.00576,-0.79226 0.45204,-0.53965 0.57265,-1.16854 0.36185,-1.88669 -0.21772,-0.72393 -0.63446,-1.34379 -1.25023,-1.85959 -0.7057,-0.59111 -1.46981,-0.93683 -2.29232,-1.03715 -0.81671,-0.10722 -1.47716,0.14013 -1.98137,0.74205 m 9.26772,6.35021 c -0.97363,1.16235 -1.478,1.83476 -1.51313,2.01725 -0.082,0.44931 -0.10516,0.91263 -0.0694,1.38997 0.0358,0.47734 0.17472,0.81743 0.41688,1.02026 0.69187,0.57954 1.45802,0.80335 2.29845,0.67144 0.84622,-0.13884 1.63154,-0.64067 2.35597,-1.50551 0.39408,-0.47047 0.69018,-1.03479 0.8883,-1.69296 0.2039,-0.66509 0.26272,-1.30454 0.17647,-1.91837 -0.0736,-0.61494 -0.29369,-1.07599 -0.66037,-1.38315 -0.15914,-0.13329 -0.37211,-0.22338 -0.63892,-0.27029 -0.25991,-0.0411 -0.56327,-0.0303 -0.91009,0.0324 -0.33992,0.0685 -0.72169,0.24316 -1.14534,0.52403 -0.41094,0.27977 -0.81055,0.65143 -1.19883,1.11497 m -0.67393,-2.18919 c 0.69544,-0.83024 1.53984,-1.38854 2.5332,-1.67493 0.98643,-0.29215 1.76678,-0.19773 2.34104,0.28328 0.42203,0.35352 0.74023,0.87318 0.95459,1.55896 0.21434,0.6858 0.30894,1.43022 0.28381,2.23327 -0.0194,0.79614 -0.18848,1.63754 -0.50734,2.5242 -0.31309,0.87975 -0.75594,1.66846 -1.32855,2.36612 -0.48569,0.59389 -1.0416,1.08186 -1.66772,1.46392 -0.62614,0.38206 -1.29632,0.59183 -2.01055,0.62931 -0.70152,0.0363 -1.32211,-0.17149 -1.86176,-0.62353 -0.21449,-0.17965 -0.37214,-0.44121 -0.47295,-0.78467 -0.095,-0.35038 -0.13508,-0.73124 -0.12017,-1.14258 0.0207,-0.41826 0.0517,-0.79259 0.093,-1.12297 0.054,-0.33151 0.11547,-0.65087 0.18443,-0.95808 -0.50349,0.31998 -1.07252,0.5144 -1.70709,0.58328 -0.62879,0.062 -1.17842,-0.1041 -1.64889,-0.49819 -0.0535,-0.3156 -0.0673,-0.79808 -0.0414,-1.44745 0.0317,-0.65627 0.0734,-1.16288 0.12519,-1.51982 -0.71252,0.27437 -1.44769,0.36496 -2.20551,0.27174 -0.75781,-0.0932 -1.38924,-0.35134 -1.89431,-0.77441 -0.83716,-0.70123 -1.28311,-1.65166 -1.33785,-2.85128 -0.0559,-1.21232 0.32479,-2.30625 1.14193,-3.2818 0.13909,-0.16604 0.28566,-0.31993 0.4397,-0.46169 0.14714,-0.14753 0.30867,-0.27712 0.48459,-0.38877 0.18753,-0.12547 0.32064,-0.21411 0.39935,-0.26593 0.0718,-0.0576 0.20893,-0.13697 0.4114,-0.23816 l 0.30373,-0.15176 c 0.21987,-0.12192 0.40159,-0.24048 0.54517,-0.35569 l 1.54897,-2.48169 c 0.15742,-0.10359 0.28456,-0.11482 0.38142,-0.0337 0.09,0.0754 0.19579,0.2582 0.31755,0.54854 0.11483,0.28458 0.15936,0.49847 0.13357,0.64168 l -1.23051,1.30036 c -0.0464,0.0554 -0.0488,0.10042 -0.007,0.13518 0.178,-0.0157 0.51811,0.0632 1.02034,0.23659 0.49531,0.16767 0.94707,0.42246 1.35527,0.76437 0.76106,0.63751 1.17008,1.56877 1.22706,2.7938 0.0628,1.21814 -0.30861,2.30805 -1.11416,3.26974 -0.14489,0.17297 -0.3424,0.36661 -0.59255,0.5809 -0.25014,0.21431 -0.43944,0.35596 -0.56788,0.42497 -0.0562,0.30608 -0.0616,0.60767 -0.0162,0.90476 0.0386,0.29131 0.13393,0.50071 0.28614,0.6282 0.13838,0.11591 0.38967,0.13215 0.75389,0.0487 0.37001,-0.0904 0.70859,-0.31887 1.01574,-0.68556 l 2.05156,-2.44922"
         id="path3137"
         style="font-style:normal;font-variant:normal;font-weight:normal;font-stretch:normal;letter-spacing:1.39999998px;fill:#ffffff;font-family:Amiri;-inkscape-font-specification:Amiri" />
    </g>
  </g>
</svg>
